<?xml version="1.0" encoding="UTF-8"?>
<svg id="Layer_2" data-name="Layer 2" xmlns="http://www.w3.org/2000/svg" viewBox="0 0 635.03 629.84">
  <defs>
    <style>
      .cls-1 {
        fill: #fff;
      }
    </style>
  </defs>
  <g id="Layer_1-2" data-name="Layer 1">
    <g>
      <path d="M51.72,277.13c.25-2.14,.48-4.04,.71-5.94,.21-.04,.42-.08,.64-.13-.7-.53-1.4-1.05-2.18-1.63-2.09,2.03-4.8,1.78-7.6,1.87,1.09,2.53,.52,4.54-1.47,6.3-1.68,1.48-3.75,1.88-5.67,.77-1.65-.95-1.94-2.12-1.16-4.72,.05-.18,.1-.36,.18-.64-3.42-.49-6.52,.05-9.35,2.06-.53,.38-1.31,.48-1.99,.54-2.06,.17-4.24-.1-6.17,.48-2.47,.74-4.75,2.11-7.08,3.27-2.18,1.08-4.19,2.51-6.86,2.21-1.76-.2-3.31-1.22-3.67-2.85-.31-1.41,.79-3.61,2.25-4.2,2.65-1.07,5.41-1.9,7.97-3.13,2.16-1.04,4.12-2.5,5.79-3.55-.32-1.71-.63-2.96-.75-4.22-.13-1.4-.16-2.64-.96-4.02-1.07-1.84-1.11-4.13,.62-5.95-1.77-2.17-1.58-4.34-.43-6.61,.27-.53,.32-1.23,.27-1.84-.12-1.63-.34-3.25-.55-4.87-.06-.45-.13-.98-.4-1.3-1.69-2.04-1.77-2.84-.34-5.11,.34-.54,.67-1.08,1.04-1.68-2.86-1.8-2.28-4.14-1.42-6.77,.47-1.43,.32-3.13,.14-4.68-.45-3.71,.99-6.95,2.27-10.24-3.46-1.43-4.34-4.27-2.32-7.44,.79-1.24,1.53-2.51,2.3-3.79-2.53-2.34-2.08-5.31,1.05-6.66-.57-1.07-1.65-2.18-1.58-3.21,.12-1.72-.3-3.13-.62-4.74-.55-2.7,.05-5.69-.13-8.59-.11-1.7,.74-3.45,1-5.2,.22-1.43,.79-2.44,2.43-2.82-2.15-1.21-2.67-2.81-1.49-4.89,.08-.14-.01-.47-.14-.63-1.78-2.31-.89-4.47,.33-6.82-1.6-1.35-3.88-2.72-2.87-5.36,.65-1.69,2.06-3.08,3.24-4.77-1.09-.93-2.56-2.46-1.98-4.66,.31-1.17,1.03-2.48,1.97-3.19,2.88-2.15,6.47-1.32,8.27,1.66,1.35,2.24-.06,5.25-3.3,7.05,2.6,3.18,2.6,4.9-.08,8.37,2.59,1.22,2.47,3.52,2.28,5.83-.1,1.25-.38,2.49-.34,3.73,.06,1.73,.02,3.3-2.35,3.98,2.48,1.38,2.36,3.39,2.35,5.47,0,2.47,.4,4.94,.3,7.4-.07,1.77,.23,3.94-2.23,4.66,2.07,2.96,1.6,5.27-1.34,6.77,1.9,1.77,2.14,3.72,.71,5.91-.2,.31,.15,1.06,.38,1.54,.67,1.43,1.7,2.77,2.05,4.27,.41,1.77,.47,3.76-1.94,4.44,1.78,3.06,1.74,3.91-.29,6.03,.54,.8,1.08,1.65,1.65,2.47,1.04,1.5,1.06,3,0,4.48-1.09,1.52-.79,3.07-.34,4.73,.28,1.01,.43,2.19,.18,3.18-.38,1.46-.35,2.74,.08,4.19,.24,.8-.28,1.92-.68,2.79-.28,.6-.93,1.03-1.14,1.26,.96,1.32,1.88,2.38,2.54,3.59,.32,.59,.18,1.46,.19,2.2,.02,1.16-.24,2.38,.02,3.48,.48,2.07,.03,3.8-1.32,5.45,1.78,1.23,1.95,3.22,1.45,4.92-.73,2.51-.11,4.96-.32,7.42-.06,.73-.29,1.45-.44,2.15,2.61-.48,5.39-.99,8.16-1.5,0-.08-.02-.16-.03-.24-1.08-.13-2.21-.13-3.23-.45-.75-.24-1.78-.77-1.97-1.39-.36-1.14-.43-2.64,.94-3.29,2.18-1.04,4.45-1.87,6.7-2.75,.57-.23,1.2-.32,1.27-.34-1.2-1.33-2.61-2.7-3.72-4.28-.34-.48,.03-1.61,.33-2.34,.74-1.77,1.64-3.47,2.51-5.27-2.2-.7-2.66-1.84-2.27-4.45,.17-1.15,.24-1.96-.45-3.16-1.38-2.41-1.5-5.1,1.59-7.3-2.29,.15-3.77-.44-4.21-2.28-.62-2.57,.24-3.64,4.55-5.88-1.55-.64-2.82-1.22-4.12-1.68-1.18-.42-2.38-.66-2.46-2.3-.09-1.73,.59-3,1.98-3.94,.36-.24,.84-.34,1.16-.62,3.9-3.3,6.85-2.91,9.82,1.32,.29,.42,.62,.81,.96,1.24,2.79-3.4,6.48-1.61,9.76-1.89,1.65-.14,3.33,.09,4.97-.07,3.54-.33,7.07-.75,10.6-1.24,2.53-.35,5.04-.85,7.55-1.31,2.17-.4,4.17-.47,5.72,1.6,.3,.4,1.38,.31,2.09,.27,2.32-.15,5.01,.28,5.73,3.1,1.1-2.4,2.69-3.15,5.18-2.43,1.51,.44,2.74,2.42,2.52,4.14-.28,2.19-2.17,1.98-3.59,2.21-2.16,.34-3.56-.69-3.89-2.13-1.1,.62-2.23,1.54-3.53,1.94-1.65,.51-3.42,.8-5.15,.84-1.22,.03-2.44-.59-3.68-.79-1.35-.21-2.73-.39-4.09-.36-1.88,.04-3.75,.23-5.62,.44-1.58,.18-3.13,.52-4.71,.7-.9,.1-2.07,.36-2.69-.07-1.61-1.13-2.67-.43-3.98,.49-2.65,1.86-5.49,1.5-8.23,.21-1.73-.82-3.32-1.91-5.01-2.9-.14,.27-.42,.8-.57,1.09,.59,1.28,1.33,2.4,1.6,3.63,.35,1.57,.1,3.05-1.66,3.94-.66,.34-1.02,1.28-1.61,2.08,1.71,1.16,1.71,2.99,2.32,4.62,.83,2.23,.93,4.33,1.02,6.56,0,.18,.08,.42,.21,.52,2.07,1.62,1.61,3.92,1.77,6.11,.18,2.47-.2,4.7-2.2,6.45,3.92-.96,7.56-1.84,11.33-2.76-1.52-2.74-1.2-4.09,1.12-6.61-.94-.71-2.16-1.26-2.75-2.2s-.96-2.37-.7-3.41c.6-2.42,3.66-4.03,5.96-3.47s3.14,3.09,2.17,7.49c3.42-1.01,6.56-1.94,9.69-2.87,2.12-.63,4.25-1.22,6.34-1.92,1.69-.57,3.32-1.34,5.01-1.92,4.06-1.4,8.29-1.25,12.48-1.13,1.22,.03,2.28,2.23,1.99,3.73-.38,1.98-1.96,3.07-3.92,3.34-2.84,.39-5.68,.94-8.43,1.74-3.65,1.06-7.2,2.44-11.08,3.77,3.7,1.73,6.55-.3,9.59-1.02,1.31-.31,2.67-.55,4.02-.59,4.97-.14,9.94-.24,14.92-.23,1.54,0,3.11,.7,4.6,.54,4.61-.5,9.2-1.26,13.79-1.93,.38-.06,.83-.4,1.1-.28,3.2,1.37,5.72-.94,8.57-1.43,1.9-.32,3.98,.67,6,.75,5.05,.21,10.18,1.64,15.11-.8,.49-.24,1.15-.15,1.74-.18,4.75-.23,9.5-.35,14.23-.71,3.46-.26,6.91-.77,10.35-1.3,1.44-.22,2.81-.8,4.24-1.13,1.29-.3,2.43,.22,3,1.33,.81,1.57,1.89,1.92,3.46,1.18,.52-2.99,1.73-4.1,4.14-3.7,1.73,.29,2.56,1.92,2.04,4.19,3.5-.63,6.98-1.26,10.3-1.86,.24-1.13,.12-2.93,.97-3.84,.92-.99,2.7-1.31,4.17-1.61,1.45-.29,3.07-.53,4.46-.18,2.71,.67,3.37,2.88,1.82,5.22-.13,.2-.28,.39-.7,.95,1.73-.19,3.04-.34,4.51-.5-.16-.42-.19-.68-.33-.85-1.65-2.02-1.14-4.08,1.29-5.04,1.14-.45,2.33-.76,3.46-1.23,1.81-.76,2.94,.28,3.78,1.54,.78,1.16,.69,2.47-.52,3.49-.24,.2-.41,.49-.61,.73,2.17,1.87,4.5,.32,6.74,.55,0-.18,.05-.34,0-.42-2.69-4.01-.13-6.93,3.91-7.03,1.7-.04,3.41,.08,5.11-.03,1.58-.1,2.84,.21,3.28,1.49,1.15-.64,2.18-1.54,3.36-1.8,2.01-.45,4.22-.58,5.83,1.03,.67,.67,1.13,2.04,.95,2.94-.18,.89-1.3,1.59-2.13,2.51,.5,.87,3.29,1.07,4.74-.09-1.92-3.47-.66-6.36,3.6-7.51,1.75-.47,3.77-.42,5.58-.11,2.85,.49,3.42,2.06,1.9,4.82,.78,.3,1.53,.58,2.45,.93-.06-.89-.12-1.5-.14-2.11-.06-2.44,.71-3.11,3.2-3.35,1.33-.13,2.61-.74,3.93-1.07,2.04-.52,4.08-1.09,6.15-1.46,2.49-.44,4.95-.31,6.97,1.5,1.35,1.22,.65,4.93-1.36,6.46h5.42c-.5-.54-.89-.95-1.26-1.37-.96-1.07-.96-3,.07-4.04,2.4-2.41,5.16-4.22,8.71-3.81,2.96,.35,5.86,.2,8.82,.12,3.2-.08,6.53,.86,9.61,1.93,2.01,.7,1.84,3.63-.14,4.58-1.28,.62-2.75,1.04-4.16,1.14-2.48,.18-4.98,.1-7.47,.02-.87-.03-1.82-.22-2.58-.62-1.64-.85-2.92-.21-4.22,1.04h2.75c1.9,0,3.8,.04,5.7,0,2.98-.07,5.98-.2,8.72,1.28,1.09,.59,1.64,.09,2.25-.75,.41-.57,.97-1.13,1.59-1.44,1.37-.68,2.79-1.32,4.26-1.72,.94-.25,2.01-.05,3.18-.05-.37-1.96,.22-3.89,2.51-4.29,1.8-.31,4.04-.84,5.33,1.29,1.11,1.84,.34,3.43-1.42,5.06h5.29c-.54-1.79-.24-3.72,1.45-4.62,1-.53,2.78-.32,3.88,.22,1.8,.89,1.86,2.72,1.14,4.7,1.44-.24,2.74-.37,3.99-.67,2.27-.54,4.04,.16,5.61,1.83,.53,.56,1.41,.97,2.18,1.08,2.27,.3,4.32,.59,5.35-2.56,.85-2.6,3.93-2.31,6.2-2.76,1.27-.25,2.61-.13,3.92-.13,3.47,0,4.66,1.59,3.76,5-.1,.38-.15,.77-.15,.74,2.18,.97,4.3,1.91,6.42,2.85-.03,.18-.05,.37-.08,.55,.41-.34,.83-.69,1.25-1.04-2.29-2.47-2.5-4.36-.71-6,2.25-2.07,4.87-1.71,6.58,.04,1.25,1.28,.79,2.92-1.17,5.32,4.06,0,8.13-.06,12.19,.03,1.6,.04,3.18,.5,4.78,.59,1.2,.06,2.42-.1,3.61-.29,1.2-.19,2.39-.54,3.57-.81-1.3-3.09,.13-5.49,3.58-5.61,1.53-.06,3.27-.09,4.56,.57,2.86,1.47,2.69,4.52-.32,6.58h2.26c.44-1.55,.72-3.04,1.33-4.4,.18-.4,1.25-.57,1.92-.56,1.78,.02,2.62,1.31,2.73,3.9,2.14-.62,4.31-1.18,6.43-1.89,2.08-.7,3.96-.1,5.41,1.16,1.32,1.14,2.45,1.07,3.62,.27,2.96-2.04,5.74-1.21,8.74-.01,2.52,1.01,4.93,2.54,7.93,2.12,1.25-.17,2.59,.59,3.9,.62,.97,.03,1.95-.42,2.92-.69,3.16-.9,6.11-.6,9.25,.61,2.65,1.03,5.68,1.03,8.52,1.6,1.05,.21,2,.96,3.04,1.11,1.55,.23,3.32,.6,4.69,.1,4.13-1.5,7.86-.44,11.64,1.04,.92,.36,1.95,.48,2.95,.6,.89,.11,1.87-.14,2.67,.14,1.35,.48,2.58,.56,3.86-.09,3.09-1.58,5.97-.79,8.78,.91,.18-.08,.37-.17,.55-.25-.18-.99-.43-1.97-.53-2.97-.32-3.23-1.99-6.4,.48-9.68,.89-1.18,.81-3.44,.5-5.08-.52-2.7-.36-4.38,2.35-6.32-2.11-3.01-1.83-6.17-.67-9.41,.14-.39,.02-.88,0-1.32,0-.11-.23-.22-.22-.31,.17-1.56,.97-3.43,.39-4.61-.75-1.52-.93-2.89-.88-4.44,0-.18,.08-.46,.2-.52,2.04-.97,1.2-2.8,1.37-4.35,.09-.77,.56-1.49,.81-2.25,.28-.85,.47-1.73,.78-2.57,.42-1.17,.91-2.32,1.45-3.68-2.54-1.25-4.06-3.31-3.4-6.43,.27-1.27,1.75-1.91,4.47-2.12-.07-.31-.05-.68-.22-.92-1.63-2.47-2.08-5.1-1.19-7.95,.08-.26-.04-.7-.22-.91-1.59-1.8-.87-3.45,.28-5.09,.19-.27,.54-.51,.55-.79,.19-3.33,1.99-6.7-.14-9.99-.83-1.29-.6-4.6,.49-5.64,.65-.62,1.38-1.16,1.83-1.54-.67-1.22-1.36-2.36-1.95-3.55-.4-.79-.57-1.7-1.02-2.46-1.47-2.47-1.42-3.48,.39-5.57-.2-.64-.51-1.22-.55-1.81-.17-2.39-.63-4.68-1.69-6.87-.67-1.39,.43-3.53,1.84-4.22,.57-.28,1.12-.61,1.69-.92-1.39-1.23-3.26-2.18-3.99-3.68-1.72-3.51-.41-5.63,4.42-6.41,.77-.12,1.57,.02,2.36-.03,1.36-.09,2.2,.34,2.55,1.8,.27,1.1,.93,2.1,1.35,3.17,.77,1.97-.19,4.15-2.64,5.84,1.88,1.75,2.66,3.94,2.77,6.46,.12,2.51,0,4.86-2.54,6.47,1.6,1.98,2.99,3.93,4.61,5.66,1.66,1.77,.1,4.78-2.13,5.89-1.23,.61-1.58,1.02-.57,2.07,.26,.27,.59,.68,.55,.98-.32,2.41,.69,4.3,1.98,6.25,1.05,1.58-.22,4.5-1.99,5.82,.44,1.77,1.25,3.42,1.14,5.01-.12,1.66-.01,3.25,.06,4.88,.04,.96-.5,1.93-.72,2.91-.35,1.58-.69,3.17-.96,4.77-.41,2.45-.77,4.92-1.14,7.38-.05,.3-.22,.74-.09,.87,2.32,2.35,1.2,4.79,.2,7.2-.51,1.24-1.13,2.44-1.74,3.73,2.88,3.87,3,6.13,.27,8.25,1.08,1.69,.55,3.3-.04,5.1-.6,1.84-.56,3.89-.86,5.83-.22,1.43-.54,2.84-.88,4.6,1.11,1.29,1.36,3.13,.63,5.21-.25,.71-.04,1.56-.15,2.33-.26,1.77-.59,3.53-.88,5.3-.11,.69-.31,1.39-.29,2.09,.04,1.65,.15,3.21-1.38,4.44-.35,.28-.29,1.69,.09,2.14,1.45,1.71,1.6,1.92,.91,4.26,.71,.2,1.43,.6,2.13,.56,2.64-.14,4.85,.66,7.05,2.16,1.46,.99,3.48,1.13,5.21,1.76,2.32,.84,2.84,1.96,2.51,4.95-.13,1.19-2.1,2.77-3.71,2.91-1.94,.17-3.88,.3-6.01,.46,.51,.84,1.11,1.54,1.4,2.35,.79,2.26-1.51,5.96-3.45,6.44-2.74,.69-4.97-.85-4.71-3.67,.21-2.28,.21-3.83,3.09-4.87-1.01-1.09-2.47-2.65-3.92-4.21,.12-.32,.24-.65,.36-.97-.53,1.25-1.27,2.45-1.56,3.75-.51,2.25-.82,4.56-1.04,6.85-.08,.84,.2,1.8,.55,2.59,1.07,2.45,.26,4.36-1.51,6.07-.23,.23-.42,.5-.56,.66,1.24-.41,2.54-1.12,3.87-1.22,2.28-.17,3.32,1.14,3.49,3.41,.08,1.14,.49,2.32,1,3.36,1.15,2.34,.53,5.52-1.52,7.22-.5,.42-.96,.89-1.55,1.43,2.42,1.85,2.32,3.82,1.26,6.48-.53,1.33,.45,3.65,1.42,5.06,1.07,1.55,1.36,3.08,.74,4.52-.67,1.56-2.15,2.54-4.01,2.66-3.41,.22-5.22-1.32-5.66-4.79-.08-.6-.34-1.18-.57-1.99-.6,1.03-1.1,1.88-1.64,2.81,2.26,1.08,2.42,3.13,2.26,5.36-.1,1.43-.08,2.89,0,4.32,.08,1.6-.63,2.69-1.83,3.67-.54,.44-1.23,1.3-1.12,1.82,.83,3.81-.67,7.2-1.51,10.76-.56,2.35-.85,4.68-2.67,6.45-.17,.16-.36,.51-.3,.68,1.34,3.6-.89,6.77-1.23,10.16-.15,1.44-.37,2.74,.17,4.26,.45,1.28,.08,2.96-.25,4.38-.78,3.36-1.51,6.77-2.74,9.98-1.03,2.71-1.01,5.4-1.18,8.17-.08,1.34-.83,2.66-1.37,3.94-1.12,2.63-2.51,5.17-3.4,7.88-.67,2.05-.72,4.3-1.06,6.46-.05,.32-.04,.74-.23,.92-2.3,2.18-1.92,5.18-2.63,7.88-.65,2.49-1.98,4.86-3.3,7.1-.97,1.64-1.96,2.97-1.51,5.14,.46,2.23,.14,4.7-1.96,6.16-1.71,1.19-1.41,2.68-1.33,4.24,3.14,.54,4.12,3.17,2.31,5.92-.37,.56-.69,1.23-.75,1.88-.18,1.8-1.31,3.16-3.19,3.26-1.55,.09-3.05-.2-3.28-2.21,0-.08-.2-.14-.48-.33-.39,4.3-2.09,8.19-4.7,11.25-2,2.35-2.06,4.13-.99,6.54,.14,.32,.02,.77,.02,1.21,.9-.09,1.7-.16,2.55-.25-.46-1.17-1.04-2.31-1.36-3.5-.69-2.61,1.04-5.02,4.02-5.76,2.67-.66,5.71,.93,6.07,3.44,.17,1.14-.09,2.51-.62,3.54-.69,1.36-1.76,2.56-2.83,3.67-.48,.5-1.34,.62-2.15,.96-.53,1.86-1.49,2.49-3.97,2.46-1.49-.02-1.81-.31-2.38-2.28-1.49,1.67-3.71,2.71-3.5,5.47,.11,1.39-.17,2.81-.11,4.21,.07,1.9-.89,2.59-3.27,2.43,1.6,2.27,1.83,4.19,.68,6.53-.94,1.91-.28,4.64-3.11,5.51,1.46,2.17,.28,5.93-1.07,7.43-1.01,1.11-2.26,.78-4.4-1.27-.43,.75-.84,1.41-1.19,2.1-.61,1.19-.16,1.8,1.11,1.7,2.02-.16,2.76,.81,2.55,2.7-.12,1.02-.11,2.11-.49,3.04-.23,.58-1.04,1.2-1.66,1.29-1.33,.2-2.71,.06-4.37,.06-1.4,2.33-2.85,5.05-4.6,7.56-3.74,5.39-7.67,10.65-11.45,16.01-1.62,2.3-3.13,4.7-4.55,7.12-.92,1.56-1.78,3.2-2.35,4.9-1.09,3.29-3.63,5.38-5.84,7.78-.53,.58-.84,1.35-1.46,2.36,2.3-.37,4.18-.11,4.77,1.89,.31,1.06,.04,2.85-.7,3.54-1.97,1.84-4.46,1.52-7.8-.67-1.34,1.82-2.57,3.77-4.08,5.48-1.53,1.73-3.37,3.18-4.99,4.83-1.98,2.02-3.85,4.16-5.83,6.19-.73,.75-1.58,1.43-2.47,1.99-3.36,2.13-6.89,4-10.07,6.36-1.54,1.14-2.69,3.01-3.57,4.78-2.85,5.72-7.07,10.29-11.66,14.59-2.14,2-4.28,4-6.37,6.05-1.42,1.39-3.04,2.58-3.37,4.84-.12,.84-1.37,1.45-1.84,2.31-.75,1.39-1.55,2.84-1.86,4.37-.85,4.2-3.88,5.63-7.53,6.41-.19,.04-.39,.04-.58,.08-.18,.03-.37,.08-.62,.14v2.38c1.08-.19,2.14-.54,3.17-.49,.73,.03,1.82,.45,2.06,.99,.31,.71,.28,2.13-.2,2.52-1.37,1.1-2.96,2.07-4.62,2.65-1.29,.45-2.75,.12-2.94-1.83-3.03,2.52-6.51,1.83-8.08-1.91-2.81,2.51-5.49,4.93-8.19,7.33-1.62,1.44-3.61,1.94-5.69,1.97-12.05,.17-24.1,.27-36.15,.42-2.42,.03-4.83,.27-7.25,.27-1.49,0-2.98-.23-4.45-.48-1.21-.2-2.36-.43-2.53-2.15-.1-1.05-3.07-1.36-4.56-.7-.79,.35-1.68,.59-2.54,.67-3.97,.38-7.82-.54-11.71-1.11-2.18-.32-4.41-.47-6.61-.45-6.09,.06-12.18,.18-18.27,.43-3.41,.14-6.43-1-9.47-2.27-2.47-1.03-5.05-1.82-7.53-2.85-2.6-1.07-5.13-2.29-7.69-3.44-3.84-1.72-7.72-3.37-11.52-5.18-3.74-1.78-7.41-3.71-11.09-5.62-2.72-1.41-5.42-2.85-8.08-4.35-1.39-.79-2.66-1.8-4.05-2.6-2.61-1.49-5.32-2.82-7.88-4.37-2.95-1.78-5.91-3.59-8.66-5.67-3.35-2.54-6.73-5.14-9.66-8.14-5.02-5.14-9.76-10.55-14.49-15.96-4.04-4.63-6.81-10.14-10.17-15.24-2.3-3.5-5.15-6.63-7.61-10.03-1.27-1.76-2.22-3.75-3.35-5.62-2.63-4.36-6.58-7.4-10.36-10.67-4.07-3.53-8.79-6.47-11.75-11.13-3.07-4.82-5.98-9.74-8.79-14.72-1.66-2.94-2.87-6.15-4.52-9.1-1.37-2.46-3.18-4.66-4.62-7.08-.88-1.47-1.32-3.19-2.15-4.7-1.19-2.17-2.66-4.19-3.81-6.37-.74-1.4-.89-3.12-1.7-4.46-1.05-1.75-2.5-3.26-3.76-4.88-.85-1.09-1.9-2.1-2.47-3.33-1.28-2.78-2.25-5.71-3.48-8.51-.95-2.16-2.44-3.86-4.72-4.83-1.77-.75-2.54-2.22-2.52-4.19,0-1.68-.14-3.38-.43-5.03-.08-.47-.82-1.09-1.33-1.18-3.02-.53-4.38-1.92-4.95-4.85-.18-.94-.85-1.89-1.52-2.62-3.31-3.64-6.23-7.41-6.9-12.55-.22-1.71-1.35-3.29-2.02-4.95-1.22-3.01-2.44-6.02-3.63-9.04-1.08-2.74-2.26-5.46-3.13-8.26-.44-1.41-.33-2.99-.45-4.5-.03-.32,.17-.72,.04-.96-1.26-2.27-2.56-4.51-3.86-6.75-.28-.49-.78-.93-.84-1.44-.22-1.87-.29-3.75-.44-5.63-.16-1.95-.07-3.71,1.99-4.81,.93-.49,1.18-1.27-.07-2.02-2.33-1.42-4.19-3.24-3.47-6.32,.27-1.16,.85-2.25,1.37-3.6-2.48,.3-4.51-.51-6.09-2.47-1.05-1.3-1.51-3.57-.57-4.87,.35-.48,1.16-.78,1.8-.85,1.19-.13,2.4-.04,3.75-.31-3.49-1.25-2.89-4.48-3.87-6.93-1.06-2.66-.72-5.12,.2-7.67,.17-.46-.04-1.11-.18-1.63-.78-2.81-.9-5.44,1.99-7.13-1.08-2.51-1.23-4.73,.19-7.09,.51-.84,.52-2.56-.02-3.33-1.49-2.11-1.2-4.13-.4-6.24,.7-1.83,1.65-3.6-.52-5.16-.32-.23-.36-.93-.43-1.42-.28-2.02-.74-4.05-.7-6.07,.02-1.31,.83-2.59,1.21-3.9,.13-.44,.21-1.02,.03-1.39-1.19-2.4-.83-5.58,1.23-7.26,.91-.75,2.28-1.12,3.49-1.28,2.31-.31,4.74-.01,6.96-.57,2.19-.55,4.19-1.86,6.28-2.84,.62-.29,1.25-.58,1.43-.66l-.03-.03Zm428.42,157.04c-.11,.03-.3,.03-.33,.11-.63,1.33-1.52,2.61-1.81,4.01-.66,3.17-3.62,3.54-5.64,5.06,1.47,1.85,1.74,3.35,.45,4.79-2.24,2.5-4.23,5.05-4.48,8.57-.03,.42-.36,.81-.48,1.24-.23,.88-.41,1.76-.61,2.65-1.47,1.25-2.94,2.51-4.41,3.76,.81,2.61,.47,3.96-1.42,5.97-.42,.45-.76,1.02-1.02,1.58-.83,1.77-1.5,3.61-2.43,5.33-2,3.72-5.29,6.64-6.25,11.05-.54,2.48-2.78,3.71-5.45,3.81,1.47,5.4-3.28,8.41-4.59,12.7,2.24-2.88,5.53-4.98,6.26-8.92,.08-.43,.68-.74,.99-1.14,2-2.59,3.96-5.2,5.98-7.77,.77-.97,1.64-1.88,2.55-2.73,.55-.51,1.45-.69,1.87-1.26,2.06-2.79,3.37-5.92,3.89-9.39,.19-1.29,.37-2.82,1.14-3.73,2.21-2.58,3.25-5.38,2.78-8.74-.03-.19,.03-.39,.05-.59,1.07-1.04,2.1-2.13,3.23-3.12,.95-.83,1.28-1.7,1.09-3.02-.25-1.77,.06-3.47,1.95-4.46,.51-.26,.86-.94,1.14-1.49,1.17-2.32,2.45-4.6,3.38-7.01,.91-2.36,1.44-4.86,2.13-7.31,.21-.15,.55-.26,.6-.45,.69-2.59,2.81-4.03,4.77-5.4,1.48-1.03,1.99-2.41,2.62-3.84,.3-.69,.53-1.42,.86-2.1,.78-1.59,1.61-3.15,2.44-4.74-2.18,.93-4.01,1.7-5.92,2.52,.48,2.56-1.85,7.38-4.43,8.99-.61,.38-1.14,1.29-1.24,2.02-.13,.98,.21,2.03,.34,3.04h0Zm-268.75,154l.07,.07c-1.79-.95-3.18-2.5-2.21-4.39,1.03-2,2.52-4.26,4.42-5.21,2.95-1.48,5.06,.22,5.44,3.4,.85-.32,1.71-.74,2.62-.97,2.05-.54,4.02-1.1,5.57-2.75,1.39-1.49,3.33-1.7,5.25-1.39,.61,.1,1.29,.59,1.66,1.1,.76,1.02,1.29,2.21,2,3.27,.18,.26,.73,.41,1.09,.37,2.9-.31,5.07-2.04,7.75-4.02-2,.21-2.96-.48-2.95-1.98,.01-1.15,.32-2.3,.51-3.51-1.91,0-3.89-.06-5.87,.02-2.5,.1-3.54-1.18-2.89-3.67,.7-2.67,4.87-4.81,8.02-4.14,.69,.15,1.4,.3,2.1,.31,3.62,.05,5.33,2.1,4.74,5.76,1.46,.36,2.69,1.01,2.89,2.68,.26,2.13-.51,3.11-3.41,4.44,.34,.07,.58,.09,.79,.17,1.42,.56,3.37,.43,3.43,2.76,.06,2.41-.55,3.21-3.1,4.24-1.16,.47-2.19,1.25-3.32,1.91,1.84,2.21,1.85,3.21,.55,5.35,1.09,1.15,2.56,2.05,2.96,3.3,.42,1.27-.2,2.89-.37,4.38,3.1-.6,5.72,1.14,7.36,3.79,1.28,2.07-.27,4.05-2.27,5.54,6.91,.66,13.46,1.28,20.2,1.93-.46-.96-.75-1.57-.85-1.79-1.59,.14-3.16,.73-4.28,.26-1.57-.65-2.99-.18-4.46-.24-2.53-.1-2.95-.39-3.26-2.81-.37-2.97,1.78-5.1,4.48-4.26,.94,.29,1.69,1.19,2.56,1.84,1.54-1.06,3.34-1.15,4.62,.14,2.56-.76,4.91-1.45,6.86-2.03,.82-1.31,1.34-2.85,2.42-3.7,1.31-1.04,3.04-1.58,4.65-2.18,1.77-.65,3.64-.8,5.19,.48,1.49,1.22,1.49,2.91,.97,4.64-.05,.17,.03,.38,.05,.57,1.22-.72,2.53-2.15,3.63-2,3.27,.45,4.24-1.57,5.29-3.85,.37-.81,1.09-1.46,1.45-2.28,.45-1.04,.94-2.16,.95-3.25,.01-1.24-.49-2.48-.77-3.72-.21-.93-.1-2.17-.67-2.75-1.36-1.38-1.19-3.09-.78-4.41,.61-1.97-.44-2.25-1.73-2.55-.75-.17-1.55-.15-2.33-.16-2.82-.02-2.97-.14-3.32-2.86-.31-2.33,1.01-3.79,3.37-3.85,.88-.02,1.75-.21,2.32-.28,0-1.53,.25-2.85-.07-4.02-.32-1.16-1.23-2.15-1.84-3.24-.11-.2-.11-.53-.04-.77,.42-1.57,.87-3.13,1.31-4.68-.35-.62-.9-1.49-1.35-2.41-.55-1.14-.89-2.39-1.54-3.46-2.45-3.97-1.21-5.89,.89-7.33-.02-1.91-.18-3.47,0-4.99,.19-1.64,1.21-2.24,2.99-2.32,2.39-.1,4.31,.41,5.78,2.57,.48-2.33,1.64-3.02,3.61-2.45,1.16,.34,1.81,2.62,1.22,4.28-.49,1.37-2.46,1.64-4.41,.68-.29,.69-.42,1.53-.91,2.04-.53,.56-1.39,.82-2.07,1.2,.47,1.47,1.27,2.63,2.4,3.49,.1,.08,.2,.17,.29,.27,3.01,3.33,3.29,6.82,.82,10.58,2.66,2.43,2.56,5.56,1.8,8.64-.36,1.44-.3,2.15,.85,3.22,2.62,2.45,2.59,3.16,1.25,5.48-.96,1.67-.41,3.33,1.17,4.34,2.56,1.64,3.49,3.89,2.39,6.43-.57,1.32-1.56,2.46-2.36,3.67,2.09,2.68,1.53,5.54,.65,8.36-.39,1.26,.12,1.86,.83,2.83,1.4,1.93,2.71,2.8,4.94,1.35,.55-.36,1.44-.16,2.04-.47,.87-.44,1.62-1.11,2.42-1.68-.11-.21-.21-.43-.32-.64-.96,0-1.93,.13-2.86-.03-1.67-.29-3.15-1.05-3.23-2.98-.07-1.61,.05-3.09,2.11-3.88,1.8-.68,3.35-2.07,4.94-3.24,.83-.62,1.47-1.49,2.24-2.2,2.17-1.99,5.8-1.97,7.75-.24,1.8,1.59,2.38,3.23,.82,5.44,1.06-.3,1.81-.58,2.59-.73,2.21-.42,4.45-.71,6.63-1.21,1.44-.33,2.51-1.3,2.26-2.91-.38-2.46,.77-4.01,2.77-5.03,1.26-.64,2.66-1.01,4.05-1.52-.06-.07-.23-.33-.45-.54-3.21-3.1-1.77-6.33,2.14-7.54,1.57-.48,3.19-.82,4.85-1.24-.82-1.47-2-2.16-3.53-2.08-1.53,.08-2.96-1.08-3.04-2.46-.08-1.61,.9-2.48,2.64-2.62,1.69-.14,3.01,.26,3.53,1.46,1.84-.76,3.51-1.44,5.2-2.14,.23-1.74,.27-3.82,.84-5.75,.33-1.12,1.35-2.54,2.36-2.86,1.81-.56,3.85-.39,5.79-.53,.27,.27,.53,.54,.8,.81,.2,.6,.39,1.21,.59,1.81,4.06-1.18,5.69-.09,5.77,3.89,2.2,.87,2.84,2.17,2.25,4.67-.37,1.59-1.65,1.35-2.82,1.41-2.81,.15-2.08-2.05-2.31-3.26-1.66-.69-3.12-1.3-4.76-1.98-1.07,1.8-2.28,4.04-5.33,3.67,1.75,4.36,.33,6.71-4.07,7.18,.52,1.32,1.05,2.66,1.48,3.75,1.53,.19,3.44-.1,4.51,.72,1,.76,1.11,2.7,1.62,4.16,.7-.6,1.62-1.28,2.39-2.09,2.1-2.2,4.14-4.45,6.18-6.7,1.05-1.16,1.99-2.44,3.08-3.56,1.19-1.22,2.56-2.26,3.75-3.48,1.26-1.28,2.42-2.64,3.58-4.01,.83-.98,1.83-1.93,2.32-3.08,.82-1.93,2.45-2.67,4.1-3.56,.68-.37,1.4-1.13,1.59-1.85,.35-1.29,.32-2.68,.44-4.03l.37-.37c2.34-1.02,5.2-1.5,5.21-4.98,0-.09,.18-.18,.26-.28,1.03-1.29,2.05-2.58,3.3-4.17-1.13-1.16-2.31-2.52-3.63-3.72-1.21-1.09-2.2-2.36-1.43-3.88,.67-1.35,1.81-2.4,3.73-2.31,2.05,.09,3.98,.17,5.47,1.97-.47-2.21-.53-4.63,1.42-5.54,2.51-1.17,5.07-.2,6.87,2.34,2.08-2.15,4.01-3.97,3.65-7.15-.09-.85,.49-2.02,1.14-2.64,.93-.88,2.21-1.4,3.85-2.37-2.61,.41-4.16-.75-4.89-2.26-.86-1.78,.79-3.09,1.97-4.29,.31-.32,.79-.5,1.06-.84,.43-.53,.92-1.1,1.08-1.73,.85-3.26,2.54-5.9,5.12-8.13,1.19-1.03,2.07-2.56,2.75-4.02,.6-1.29,.57-2.86,1.09-4.2,.82-2.09,2.81-2.61,4.76-2.89,.35-5.77,.64-7.2,4.77-10.31,.81-.61,1.19-1.86,1.63-2.88,.72-1.63,1.26-3.34,1.99-4.96,.71-1.57,1.64-3.03,2.34-4.6,.7-1.58,1.48-2.97,3.29-3.55,.44-.14,.97-.9,.96-1.36-.13-3.86,.93-7.22,3.77-9.95,.44-.43,.71-1.04,1.06-1.57,1.76-2.63,.99-7.03,5.86-7.59-1.86-1.73-2.83-3.4-1.39-5.37,.92-1.25,2.18-2.24,3.11-3.48,.86-1.14,2.05-2.45,2.09-3.71,.09-3.12,.63-5.69,4.01-6.79-2.75-2.91-2-5.46,1.71-6.51,1.21-.34,2.42-.73,3.73-1.13,.15-.56,.3-1.32,.57-2.03,.32-.87,1.02-1.69,1.06-2.55,.14-3.76,.84-4.62,4.52-5.05-2.63-3.37-3.11-4.29-2.88-5.46,.43-2.2,2.33-4.03,4.53-4.37-1.7-2.91-1.6-5.14,.63-6.88,1.96-1.54,4.14-2.81,6.19-4.17-.84-2.14-.25-4.81-.23-7.44,0-.16,.24-.3,.34-.46,.7-1.1,1.34-2.24,2.13-3.28,.48-.63,1.13-1.46,1.79-1.54,1.61-.2,3.26-.03,5.1,0-.03,.12,.08-.32,.18-.73-.6-.04-1.16,.08-1.47-.14-1.06-.76-2.44-1.47-2.91-2.55-.39-.88,0-2.57,.67-3.34,1.02-1.15,2.6-1.82,3.94-2.68,.32-.2,.81-.26,.97-.54,.72-1.25,1.34-2.55,1.96-3.75-3.32-.31-5-2.48-3.66-5.29,.49-1.02,1.34-1.92,2.18-2.71,2.29-2.16,3.81-4.5,3.39-7.91-.25-1.97,.04-4.13,1.77-5.52,1.44-1.16,1.31-2.33,1.06-4-.35-2.35-1.15-5.01,.58-7.13,.82-1.01,2.32-1.46,3.45-2.13-.14-.13-.47-.44-.82-.71-2.93-2.24-2.54-5.23-.65-7.44,.32-.37,.71-.88,.68-1.3-.2-3.19,.71-5.84,3.73-7.64-2.9-.84-4.09-3.01-4.8-5.33-.73-2.36,.38-4.13,3.02-4.95-2.19-2.34-2.52-5-2.24-7.63,.34-3.17,.96-6.32,1.76-9.41,.7-2.68,3.09-3.13,5.48-3.29-.84-3.57-1.48-3.86-4.82-3.22-1.26,.24-2.86-.08-3.99-.71-.78-.44-1.5-1.94-1.35-2.81,.19-1.08,1.12-2.57,2.05-2.87,2.59-.82,5.35-1.11,8-1.6-.44-.76-.96-1.56-1.39-2.4-1.7-3.32-1.55-4.24,.92-7,.36-.4,.53-.97,1.09-2.01-3.63,.39-6.65,.91-9.67,1-6.83,.2-13.55-1.83-20.42-1.11-.34,.04-.71-.27-1.08-.35-2.28-.51-4.37-1.56-6.95-.97-2.09,.48-4.72,.67-6.53-.21-2.45-1.18-4.47-1.71-7.29-1.35-4.6,.58-9.32,.16-13.99,.12-.41,0-.81-.33-1.22-.51-2.26-1-4.44-2.57-6.79-2.88-5.01-.66-10.1-.71-15.16-.88-1.11-.04-2.4,.23-3.32,.82-1.57,.99-3.02,.87-4.63,.36-.71-.23-1.67-.53-2.23-.25-1.71,.88-3.21,.73-4.98,.07-1.12-.42-2.65-.36-3.81,.03-2.01,.68-3.8,.84-5.75-.15-1.55-.79-3.23-1.11-4.98-.31-2.58,1.18-5.22,1.1-7.98,.57-2.12-.4-4.33-.4-6.5-.38-2.16,.02-4.34,.35-5.59-1.99-6.37,5.45-13.02,2.17-13.95-3.55h-4.44c-1.05,1.39-1.64,2.89-2.71,3.39-1.52,.71-3.37,.78-5.1,.96-1.92,.2-3.78,0-5.13-1.7-.18-.23-.64-.35-.96-.35-5.37,.02-10.74,.15-16.1,.04-1.48-.03-3.32-.34-4.33-1.25-1.97-1.79-4.03-2.12-6.5-1.68,.06,2.3-1.68,3.72-3.34,4-3.09,.52-6.36,.59-9.47,.18-6.62-.88-13.15-.56-19.73,.21-1.6,.19-3.29-.34-4.93-.51-.48-.05-1.02-.12-1.46,.02-1.69,.57-3.33,1.68-5.02,1.75-3.5,.16-7.03-.16-10.54-.41-.92-.07-1.78-.65-2.7-.93-1.16-.35-2.44-1.05-3.5-.82-2.22,.48-4.27,1.79-6.49,2.19-3.62,.65-7.31,1.04-10.99,1.2-6.39,.28-12.8,.3-19.2,.44-.46,0-.92-.02-1.38,.03-3.73,.36-7.45,.78-11.19,1.1-2.59,.22-5.2,.23-7.78,.51-2.02,.22-4,1.02-6.01,1.05-4.3,.07-8.6-.29-12.91-.29-1.85,0-3.71,.51-5.57,.62-1.84,.11-3.7,.05-5.55,0-1.63-.04-3.28-.37-4.89-.23-3.07,.26-6.12,.88-9.19,1.09-1.35,.09-2.76-.76-4.1-.67-4.52,.29-9.02,1.05-13.54,1.17-4.8,.13-9.61-.27-14.41-.4-.97-.03-1.94,.06-2.9,.19-2.08,.28-4.21,1.06-6.22,.82-1.88-.22-3.51,.37-5.25,.45-4.52,.19-9.05,.17-13.58,.26-.48,0-.99,.09-1.42,.29-2.71,1.23-5.3,2.17-8.15,.1-1.47-1.07-3.34-.82-5.02,.03-.4,.2-.8,.52-1.21,.54-4.84,.16-9.46,2.22-14.39,1.63-.35-.04-.73,.21-1.1,.28-1.89,.31-3.8,.49-5.66,.91-2.31,.53-4.57,1.25-7.36,2.03,3.08,3.9,5.67,7.41,.91,10.82-.31,1.86-.6,3.57-.93,5.55,.58-.04,1.43-.13,2.28-.15,1.49-.04,3.16-.48,4.44,.03,1.9,.76,3.3,.18,4.91-.55,4.57-2.06,9.17-3.72,13.48,.14,3.53-5,8.76-5.57,14.12-6.05-2.21-.26-4.35-.21-6.49-.02-2.1,.18-4.18,.63-6.27,.73-2.08,.1-3.72-1.61-3.77-3.61-.04-1.38,1.88-2.83,3.71-3.06,3.84-.46,7.55-1.26,10.73-3.81,.72-.58,2.89-.5,3.48,.13,1.78,1.9,3.88,2.08,6.18,2.14,1.97,.05,4.03-.49,5.83,.98,.36,.29,1.23,.03,1.85-.08,1.46-.27,2.89-.73,4.35-.88,3.09-.32,6.2-.51,9.3-.74,.32-.02,.66-.02,.98,.04,2.17,.4,2.55,1.01,2.86,4.46h2.85c-.43-2.76,.21-4.46,1.98-5.22,.88-.38,1.88-.49,2.72-.92,3.7-1.86,6.99-.22,7.43,3.93,2.98,0,5.99,.08,8.99-.03,1.65-.06,2.91,.32,3.61,1.92,2.39-2.46,5.35-2.81,8.47-2.63,.48,.03,1.13,.11,1.41-.15,2.78-2.56,6.2-2.59,9.65-2.66,1.39-.03,2.5,.28,3.03,1.6,.63,1.55,.04,4.25-1.14,4.84-3.95,1.96-7.87,4.06-12.52,3.85-1.32-.06-2.67,.34-4,.55-1.81,.29-3.63,.69-4.74-.74-1.26,.21-2.25,.57-3.22,.51-5.05-.29-9.88,1.09-14.79,1.86-2.29,.36-4.57,.82-6.86,1.16-2.24,.33-4.52,.44-6.73,.88-2.13,.42-4.18,1.29-6.31,1.62-1.07,.16-2.65-.11-3.28-.82-.62-.7-.41-2.21-.41-3.36,0-.53,.38-1.06,.64-1.73-1.72,.12-3.11,.45-3.86,2.3-.82,2.03-2.02,3.67-4.65,3.71-1.28,.02-2.56,.69-3.83,1.1-1.15,.37-2.27,1-3.44,1.13-2.52,.28-5.06,.28-7.59,.46-.89,.06-1.84,.15-2.63,.51-2.52,1.13-4.98,1.67-6.77,.27-2.09,.69-3.63,1.35-5.24,1.7-3.66,.8-7.3,1.85-11.13,1.45-.8-.08-1.67-.29-2.4-.06-1.58,.49-3.11,1.17-4.61,1.88-.33,.16-.73,.84-.64,1.13,1.12,3.24-.49,5.48-2.61,7.58-1.81,1.79-4.86,2.14-6.49,.71-2.5-2.19-2.61-3.47-.55-6.24,.41-.55,.79-1.13,1.28-1.84-1.69,.42-3.27,.66-4.74,1.22-1.9,.72-3.91,1.45-5.47,2.68-.74,.58-.28,2.5-.86,3.53-1.15,2.02-.81,3.51,.35,5.49,1.31,2.23-.33,4.31-1.7,6.08,1.31,2.32,2.85,4.52,1.84,7.43-.19,.54,.05,1.26,.17,1.88,.15,.74,.62,1.48,.54,2.18-.42,3.81-.98,7.61-1.46,11.42-.08,.63-.24,1.46,.06,1.91,1.54,2.27,.92,4.43-.17,6.64,2.8,2.64,2.6,5.86,1.86,9.1,.46,.44,.94,.79,1.3,1.24,1.46,1.85,2.8,3.72,1.35,6.26-.22,.39,.13,1.2,.39,1.74,.9,1.83,1.66,3.69,.62,5.68-.63,1.19-.99,2.18,.32,3.17,.33,.25,.49,.93,.48,1.4-.07,2.37-.24,4.73-.36,7.1-.02,.45,.02,.91,.06,1.36,.15,1.66,.32,3.32,.51,5.27,.43,.35,1.82,.9,2.05,1.77,.85,3.17,1.3,6.45,1.99,10.14,2.39,1.37,3.99,2.45,3.65,6.18-.27,2.97,1.04,5.45,2.66,7.84,.92,1.35,1.72,1.32,2.36,.69-.96-2.09-2.08-3.9-2.6-5.86-.4-1.51-.1-3.09-1.11-4.62-.67-1.02-.37-2.67-.57-4.03-.09-.6-.22-1.22-.5-1.75-.57-1.08-1.6-2.04-1.83-3.17-.51-2.57-.93-5.19,.07-7.8,.6-1.57,.56-2.78-1.5-3.54-3.1-1.15-3.61-3.23-2.05-6.34,.39-.78,.54-1.7,.71-2.57,.31-1.61,.56-3.23,.84-4.86-3.59-.68-4.61-3.12-2.73-6.4-.74-1.38-1.93-2.61-1.88-3.78,.06-1.24,1.3-2.43,2.04-3.67-2.35-2.92-1.02-5.55,.79-7.63-.72-1.19-1.54-2.02-1.73-2.97-.19-.98,.25-2.08,.42-3.22-1.5,.25-2.65-.27-3.16-1.83-.69-2.13-.02-3.84,2.25-5.59-.63-.19-1.17-.38-1.73-.51-1.65-.38-2.38-1.29-2.22-3.07,.17-1.88,1.27-3.65,3.07-4.33,1.83-.69,3.67-1.34,6.03-2.21-1.45-.25-2.36-.57-3.26-.52-1.44,.08-2.42-.38-2.92-1.72-.52-1.41-.65-2.82,.59-3.93,.92-.83,1.97-1.53,3.22-2.48-.55-.56-1.11-1.31-1.84-1.84-1.85-1.38-2.77-3.34-1.82-4.59,1.69-2.23,4.16-3.31,6.79-3.94,3.24-.77,5.37,1.14,7.11,3.43,1.94,2.54,1.24,6.16-.99,6.82,.18,1.94,.74,3.84,.42,5.58-.49,2.65,.66,4.71,1.52,6.94,.18,.47,.69,1.08,.55,1.37-.98,1.98,.04,3.72,.4,5.57,.16,.79,.23,2.07-.22,2.43-2.3,1.84-1.44,4.17-1.32,6.42,.05,.88-.17,1.77-.16,2.66,0,.44,.14,.99,.43,1.28,2.43,2.48,3.22,5.31,2.06,8.64-.13,.38-.12,.83-.12,1.24,0,1.41,0,2.82,0,4.22,2.03,1.42,2.06,3.43,1.12,5.7-.69,1.66-1.1,4.3-.25,5.55,1.99,2.92,1.52,5.1-.61,7.45,3.4,.18,4.54,4.2,3.22,6.42-.97,1.63-1.99,3.22-3,4.85,1.07,.43,2.04,.74,2.93,1.2,2.29,1.18,2.89,3.81,1.53,5.96-.35,.54-.51,1.37-.4,2,.27,1.56,.69,3.1,1.17,4.61,.45,1.44,1.03,2.84,1.58,4.24,.06,.15,.23,.33,.38,.36,1.45,.28,1.54,1.35,1.59,2.53,.04,.9-.08,2.07,.42,2.65,1.67,1.93,1.64,3.94,1.05,6.2-.2,.78,.04,1.69,.11,2.53,.1,1.29,.69,2.77,.25,3.84-1.1,2.69,.95,4.57,2.12,5.66,1.7,1.59,2.66,2.96,2.27,5.25,1.2,0,2.21-.18,3.12,.05,1.07,.27,2.8,.76,2.92,1.4,.29,1.46,.21,3.36-.54,4.56-1.23,1.97-5.41,1.59-7.66-.4-.42,.77-.83,1.53-1.09,2.01,1.49,.78,3.01,1.29,4.15,2.26,1.23,1.05,1.97,2.64,3.14,3.77,1.13,1.09,1.58,2.2,1.53,3.78-.14,4.48,2.14,7.71,5.49,10.43,.86,.7,1.33,1.9,1.92,2.9,.31,.53,.37,1.27,.79,1.66,3.17,3.05,6.85,5.61,8.93,9.7,.7,1.38,1.81,2.6,2.89,3.73,.9,.93,1.96,2.41,3.43,1.57,3.99-2.31,9.67,1.87,9.49,6.04-.08,1.83,.13,3.84,1.81,5.38,1.2,1.1,2.64,2.66,2.74,4.1,.19,2.69,1.58,4.59,2.91,6.62,.68,1.04,1.48,2.02,2.31,2.95,1.63,1.82,3.59,3.39,3.72,6.15,.02,.44,.81,.89,1.31,1.23,1.36,.92,2.68,1.75,2.6,3.75-.03,.82,.46,1.71,.88,2.47,1.19,2.2,2.62,4.27,3.67,6.53,1.87,4.06,3.57,8.19,6.78,11.44,.91,.92,1.71,1.96,2.54,2.96,1.9,2.28,3.79,4.56,5.93,7.15,.3-1.01,.42-1.38,.51-1.75,.67-2.53,1.35-3.02,3.91-3.09,2.03-.05,3.9,.6,5.83,.97,2.65,.5,4.05,1.98,5.32,3.97,.58,.9,1.19,1.65,2.46,1.39,1.32-.26,2.37,.23,2.76,1.56,.38,1.32,.75,2.81-.63,3.74-1.01,.68-2.24,1.04-3.39,1.52-2.58,1.09-5.34,.24-6.28-2.2-.8-2.07-2.01-3.03-4.24-2.69-.74,.11-1.51,.02-2.74,.02,.75,.91,1.17,1.54,1.7,2.05,1.13,1.08,2.44,1.98,3.44,3.16,1.45,1.71,3.03,2.3,5.27,1.84,1.69-.35,3.77-.43,4.65,1.44s2.23,1.84,3.8,1.78c.65-.02,1.35-.15,1.96,.02,1.44,.39,3.31,.25,3.74,2.19,.21,.95,.34,2.28-.16,2.93-.69,.89-2.01,1.3-3.08,1.92,5.23,6.32,10.58,12.78,15.93,19.24,.21-.01,.43-.02,.64-.03,.41-2.06,.94-4.11,1.21-6.2,.26-1.99,1.03-2.91,3.17-2.78,2.43,.15,3.99,.87,4.01,2.77,0,.51,.62,1.07,1.06,1.49,.62,.6,1.8,1.01,1.92,1.66,.24,1.23,.59,2.77-1.18,3.51-2.37,1-4.7,2.1-7.18,3.22,3.53,2.69,7.24,5.52,11.06,8.43,1.5-2.48,3.5-2.52,5.67-2.72,2.73-.25,3.62,1.98,5.3,3.14,2.61-3.68,5.51-3.68,9.19-.19,1.61-.26,3.08-.49,4.94-.79-2.18-.93-2.71-2.39-2.57-4.35,.09-1.18-.34-2.39-.52-3.48-.87-.18-1.64-.47-2.39-.46-2.19,.04-4.49-.18-6.56,.4-3.12,.88-5.73-.57-5.83-3.75,0-.15-.08-.3-.15-.5-.42,.25-.77,.43-1.08,.65-.14,.1-.25,.28-.31,.44-1.23,3.46-1.51,3.65-4.86,3.36l.03-.03Zm282.16-191.51c1.18,1.97,2.12,3.87,1.03,6.34-1.15,2.61-3.26,2.93-5.45,2.88,.69,1.33,1.54,2.49,1.91,3.79,.46,1.59,.53,3.29,.78,4.99,.72-1.44,1.42-2.65,1.91-3.94,.25-.65,.06-1.46,.18-2.17,.18-1.11,.17-2.38,.74-3.27,2.14-3.35,4.02-6.71,2.98-10.68-1.28,.65-2.61,1.32-4.08,2.07h0Zm-200.69,206.15c-2.33,1.74-4.65,2.96-7.04,1.36v4.94c4.51,0,9.14,.03,13.76-.04,.58,0,1.16-.6,1.73-.92-2.35-.15-4.43,.27-6.45,.1-2.04-.18-2.86-2.61-2.01-5.44h.01Zm68.68-8.67c3.33-1.35,3.01-5.2,5.17-7.16-.91-.43-1.73-.81-2.37-1.11-.33,.71-.52,1.86-.96,1.97-1.52,.37-3.13,.38-4.67,.52-.59,.77-1.25,1.63-2.26,2.96,3.19-1.02,4.31,.61,5.09,2.82h0ZM52.74,259.77c-3.17,.11-5.91,.61-8.43,1.94-.47,.25-.71,.95-1.06,1.45,.54,.24,1.06,.6,1.62,.71,1.26,.25,2.64,.14,3.79,.61,1.33,.55,2.19,.2,3.28-.5,1.76-1.13,.33-2.59,.79-4.21h.01Zm184.07,337.2c.56,.35,1.08,.5,1.32,.85,1.27,1.81,.34,5.54-1.65,5.63-2.54,.12-2.3,1.42-2.12,2.96,2.21-.7,4.45-1.4,6.68-2.1-1.3-1.07-1.37-2.95-.47-4.19,1.2-1.64,.65-3.11,.71-4.83-1.45,.54-2.69,1-4.48,1.66v.02Zm293.72-305.7c-.56-1.27-1.45-2.47-1.59-3.76-.25-2.33-.36-2.65-3.2-2.97,0,1.75-.18,3.5,.08,5.19,.11,.73,1.05,1.72,1.76,1.86,1.05,.21,2.23-.22,2.95-.32h0Zm-27.16,94c-.09-.91-.22-2.17-.39-3.85-.69,1.37-.99,2.59-1.75,3.32-.75,.72-1.97,.93-2.79,1.29,.6,.88,1.38,2.02,1.92,2.8,.77-.9,1.79-2.11,3.01-3.55h0Zm-181.39,236.63c-2.24-.31-4.06,.54-5.24,2.46,2.11,.09,4.79-1.16,5.24-2.46Zm206.04-321.14c2.03-2.5-1.62-2.86-2.04-4.62-.47,.34-.91,.65-1.34,.96,1.16,1.26,2.27,2.46,3.38,3.66Zm-287.16-61.06c1.79-.3,3.09-.52,4.49-.75-.85-1.05-1.37-1.69-1.88-2.34,.2,.19,.4,.39,.61,.58-.89,.69-1.78,1.39-3.21,2.51h0Zm115.21,360.99c.18,.14,.35,.27,.53,.41,.73-.94,1.47-1.88,2.41-3.09-1.3,.23-2.35,.41-3.41,.59,.17,.74,.32,1.41,.47,2.08h0Zm149.15-225.05c-.13,1.2-.24,2.33-.36,3.46,.12,0,.23,.01,.35,.02,.63-.88,1.26-1.75,1.89-2.62-.56-.26-1.13-.52-1.88-.86Z"/>
      <path d="M33.34,44.86c.73-.37,1.46-.74,2-1.02-.25-.74-.65-1.55-.77-2.39-.2-1.37,.15-2.41,1.86-2.6,.96-.1,1.82-.56,.81-1.81-2.15-2.67-1.34-6.2,1.79-7.98,.88-.5,1.81-.94,2.79-1.44-2.47-.24-3.77-1.69-3.72-4.06,.05-2.71,1.93-4.19,5.61-4.39-.65-1.84-1.2-3.68,.62-5.21,.14-.12,.37-.38,.33-.45-1.4-2.72,1.48-4.31,1.8-6.6,.1-.7,1.49-1.64,2.36-1.73,2.4-.24,4.84-.08,7.27-.09,1.26,0,2.51-.14,2.85,1.6,.36,1.9-.28,3.61-1.77,4.28-.28,.13-.57,.24-1.07,.45,2.54,2.26,2.18,4.71,1.08,7.45-.77,1.92-.76,4.15-1.5,6.09-.46,1.22-1.6,2.21-2.52,3.21-.7,.76-1.71,1.27-2.28,2.1-.72,1.04-1.73,1.97-.72,3.65,1.2,2.01,.49,3.5-1.67,4.87-.43,.27-.91,.46-1.62,.82,1.83,1.61,3.25,3.45,1.81,5.74-1.09,1.74-2.63,3.2-4.06,4.9,3.34,2.75,.32,5.66-.45,8.65-.16,.63-.1,1.34-.07,2.01,.05,.9,.39,1.84,.22,2.68-.41,1.98-.94,3.95-1.64,5.85-1.35,3.62-2.36,7.3-2.74,11.16-.29,2.88-.77,5.75-1.06,8.63-.13,1.23-.07,2.49,0,3.73,.1,1.83,.18,3.6-2.54,4.34,5.04,3.66,.86,6.57-.28,9.74,2.4,1.26,2.13,3.47,1.96,5.51-.1,1.16-.76,2.27-1.1,3.42-.18,.59-.32,1.24-.29,1.85,.18,3.17,.79,6.37,.5,9.49-.18,1.96-1.34,3.85-1.02,5.98,.16,1.09,.28,2.18,.39,3.27,.04,.45,.16,.99-.02,1.36-2.12,4.31,.38,8.73-.35,13.08-.29,1.72-.33,3.47-.51,5.21-.36,3.6-.84,7.19-1.03,10.8-.07,1.28,.33,2.72,.92,3.88,.79,1.55,.61,2.85,.13,4.42-.51,1.7-.6,3.55-.69,5.35-.11,2.16-.08,4.32,0,6.48,.08,2.52-.53,5.05,.56,7.58,.34,.79-.36,2.64-1.15,3.18-1.34,.92-3.07,.79-4.54-.33-2.14-1.63-1.86-4.12-2.34-6.34-.11-.5,0-1.05-.02-1.57-.15-2.61,.02-5.13-.97-7.8-1.02-2.76-.92-6.02-.88-9.05,.05-3.86-.79-7.78,.92-11.61,.45-1.01-.74-2.66-.87-4.04-.16-1.78-.08-3.59,.03-5.38,.05-.88,.5-1.74,.57-2.62,.19-2.59,.34-5.19,.39-7.79,.02-1.15-.44-2.31-.35-3.45,.33-4.11,.81-8.21,1.23-12.31,.14-1.43,.26-2.86,.36-4.29,.03-.45-.22-1.1,0-1.34,1.77-1.98,.71-4.03,.43-6.14-.15-1.11,.53-2.31,.74-3.48,.2-1.11,.8-1.95,.66-3.38-.28-2.84,.63-5.8,1.15-8.69,.07-.39,.73-.68,.98-.91-2.17-3.61-1.06-7.61-1.77-11.38,.17-.07,.34-.13,.5-.2-1.01-.31-2.01-.62-3.25-1.01-.8,3.23-2.74,5.2-6.12,4.3-1.11-.29-2.34-1.73-2.7-2.9-.82-2.63,1.28-3.9,3.35-5.1-2.51-.27-3.64-1.17-3.86-2.96-.47-3.8,.26-4.92,2.46-6.29,1.96-1.22,3.91-1.1,5.95-1.11,2.98-.02,5.21,3.13,4.04,5.9-.36,.86-1.41,1.43-2.15,2.13,.11,.16,.23,.32,.34,.48,1.08-.75,2.15-1.5,3.31-2.31-1.26-1.69-1.19-3.06-.24-4.67,.57-.97,.42-2.36,.55-3.3-2.07,.34-4,.7-5.93,.98-1.83,.26-2.95-.83-3.69-2.3-.64-1.26-.19-2.3,.5-3.58,1.05-1.94,2.55-2.9,4.73-3.48-1.8-2.1-2.31-4.34-.97-6.75,1.19-2.14,2.54-4.12,5.83-3.65-1.32-1.84-1.28-3.25-.2-4.6,.26-.25,.52-.5,.77-.75l.05,.03Z"/>
      <path d="M203.14,211.61c.79,.42,1.57,.97,2.43,1.26,1.62,.55,3.26,1.2,4.94,1.37,3.1,.32,6.28,.08,9.35,.52,2.6,.38,5.11,1.4,7.95,2.23,2.24-2.34,5.67-1.69,8.8-1.34,1.53,.18,2.8,1.83,2.44,3.85,.91-.84,1.66-2.12,2.66-2.36,3.26-.79,6.7-1.69,9.87,.04,.9,.49,1.14,2.18,1.7,3.35,2.04-1.44,4.72-2.09,7.65-1.96,1.34,.06,2.71-.36,4.06-.34,4.22,.07,8.5-.17,12.61,.54,2.06,.36,3.81-.13,5.71-.12,2.69,0,5.49,.87,8.04,.36,1.72-.34,3.38-.8,5.16-.75,1.79,.05,3.69,.37,5.34-.12,2.96-.88,5.79-.64,8.78-.42,2.04,.15,4.15-.8,6.24-1.17,1.71-.3,3.45-.62,5.18-.67,6.4-.2,12.81-.27,19.21-.45,.58-.02,1.27-.29,1.71-.67,1.33-1.16,2.79-1.77,4.58-1.68,1.77,.09,3.54,.01,5.31,.02,1.84,.01,2.9,1.19,3.32,2.75,.57,2.11-.15,3.8-1.85,4.39-1.31,.46-2.77,.67-4.16,.65-1.8-.02-3.59-.52-5.39-.52-.77,0-1.71,.57-2.28,1.16-1.38,1.43-2.86,1.12-4.48,.68-.65-.18-1.41-.12-2.1-.03-1.59,.21-3.16,.65-4.75,.72-2.95,.12-5.92-.13-8.86,.09-2.07,.15-4.1,.82-6.15,1.26-.44,.09-.93,.36-1.31,.25-4.48-1.34-8.7,1.28-13.14,.83-2.15-.22-4.39,.24-6.51-.11-2.1-.35-3.93,.48-5.8,.59-3.06,.18-6.44,.6-9.61-1.12-2.08,1.03-4.48,.88-6.89,.17-3.24-.95-6.36-1.14-9.65,.17-1.65,.66-3.68,.41-5.54,.5-.63,.03-1.28-.21-1.92-.22-2.22-.06-2.82-.6-3.11-3.13-3.42,2.62-7.1,1.93-10.84,1.22-1.76-.33-2.48-1.22-2.49-2.46-.94,.77-1.93,2.08-3.19,2.46-1.39,.42-3.07,.16-4.56-.12-1.47-.28-2.87-.95-4.04-1.36-.95,.34-1.89,.94-2.84,.97-5.6,.18-11.14-.48-16.62-1.59-.68-.14-1.43-.44-1.92-.9-1.97-1.85-4.3-1.37-6.63-1.31-3.06,.08-6.12-.04-9.18-.07-1.71-.02-2.41-1.04-2.64-3.05-1.82,3.81-5,2.83-7.72,2.49-1.24-.16-2.32-1.67-3.5-2.6-1.16,.33-2.58,.88-4.04,1.11-.74,.11-1.56-.44-2.36-.56-1.11-.16-2.24-.31-3.35-.23-3.1,.22-6.19,.57-9.29,.84-3.16,.27-6.33,.54-9.5,.75-1.68,.11-3.38,.31-4.75-1.15-1.32-1.4-1.41-3.67-.02-5.04,1.86-1.84,4.05-2.93,6.73-2.81,3.21,.14,6.42,.53,9.61,.41,2-.07,3.95-1,5.95-1.31,1.66-.26,3.65-.76,4.99-.11,2.35,1.14,4.67,.83,7.02,1.04,.82,.07,1.6,.61,2.42,.89,.7,.24,1.44,.65,2.14,.6,2.89-.21,5.13,.64,6.29,3.38,1.1-.41,2.13-.81,3.15-1.19-2.47-.73-3.65-1.74-3.1-3.4,.4-1.19,1.64-2.56,2.8-2.93,1.25-.39,2.84,.37,4.29,.48,.93,.07,1.96,.08,2.8-.25,1.8-.71,4.23-.33,5.35,1.06,.74,.93,.47,2.77-.52,4.13l.02,.04Z"/>
      <path d="M531,333.57c-1.47-2.12-1.01-4.97-.86-7.71,.04-.75,1.12-1.44,1.73-2.18-2.32-2.59-2.65-7.47-.63-10.27,1.37-1.9,4.71-2.11,6.62-.67,2.89,2.17,2.74,6.53,.12,9-.47,.44-1.01,.81-1.69,1.35,.83,.62,1.32,.99,1.82,1.36,1.88,1.41,2.55,3.19,.91,6.11-.4,.71-.48,1.58-.74,2.37-.25,.76-.54,1.5-.87,2.42,1.97,2.65,1.88,4.3-.18,5.86,.38,1.95,.73,3.72,1.05,5.49,.15,.82,.24,1.66,.33,2.49,.28,2.47,.03,4.76-1.75,6.74-1.36,1.52-1.24,3.12-.17,4.92,1.02,1.7,1.21,3.49,.13,5.34-.44,.77-.89,1.85-.69,2.62,1.1,4.15,1.01,7.89-2.99,10.72,1.12,1.59,2.95,2.9,2.33,5.04-.5,1.72-1.4,3.33-2.32,5.47,.5,1.6,1.01,3.82-.43,6.02-1.03,1.58-2.65,1.86-4.14,1.38-1.31-.42-2.73-1.13-2.94-3-.13-1.17-.81-2.27-1.1-3.44-.57-2.33,.63-4.12,1.97-5.84,.39-.5,.75-1.01,1.13-1.52-2.91-2.08-3.23-4.12-1.32-6.96,.42-.62,.65-1.46,.67-2.21,.14-5.04,.19-10.08,.28-15.11,0-.38,.02-.89,.25-1.1,1.85-1.71,1.16-3.69,.97-5.79-.26-3-.9-6.19,1.22-8.91,.48-.61,1-1.18,1.57-1.84-.82-1.3-3.15-1.73-2.42-3.82,.5-1.41,1.31-2.7,2.11-4.31l.03-.02Z"/>
      <path d="M635.03,94.31c0,2.87-.01,2.81-2.77,3.22-3.73,.56-7.39,1.17-11.12-.32-1.07-.43-2.54,.27-3.83,.27-3.48,.02-6.84-.15-10.3-1.25-3.63-1.15-7.67-.97-11.51-1.51-2.79-.39-5.62-.89-8.18,.49-2.1,1.14-4.13,.76-6.21,.42-1.13-.18-2.21-.73-3.34-.88-2.62-.35-5.26-.58-7.9-.82-2.39-.21-4.78-.39-7.16-.55-.35-.03-.74,0-1.07,.11-4.37,1.52-8.79,.89-13.24,.48-1.9-.17-3.86,.29-5.8,.37-1.69,.07-3.6-1.24-3.9-2.55-.39-1.69,.62-3.8,2.35-4.45,4.46-1.7,8.96-2.33,13.65-.71,3.13,1.08,6.41,.9,9.68,.44,1.84-.26,3.74-.3,5.6-.15,3.51,.28,7,.8,10.51,1.17,1.66,.17,3.34,.37,5,.3,1.7-.07,3.39-.49,5.09-.71,.96-.13,1.94-.25,2.9-.23,3.63,.07,7.43-.43,10.85,.49,2.72,.73,5.38,1.09,8.11,1.26,1.21,.08,2.44-.31,3.66-.34,1.99-.04,3.98-.28,5.81,1.04,.7,.5,1.86,.41,2.81,.51,2.9,.29,5.81,.49,8.7,.82,2.06,.24,1.5,1.92,1.6,3.08h.01Z"/>
      <path d="M476.85,206.47c2.54-1.46,4.81-3.3,7.41-4.09,1.94-.59,4.28,.17,6.45,.3,1.02,.06,2.18,.35,3.05-.01,2.58-1.07,4.8-.82,6.67,1.11,1.75,1.82,1.05,4.88-1.44,5.32-1.7,.3-3.62,.12-5.28-.39-1.85-.56-3.28,.06-4.72,.81-3.44,1.82-7.09,1.17-10.7,1.08-.26,0-.5-.35-.86-.63-2.27,3.21-5.8,1.96-8.81,2.6-1.81,.38-3.57,.94-5.37,1.37-.74,.18-1.51,.28-2.27,.34-6.2,.54-12.4,.99-18.58,1.65-1.74,.19-3.43,.96-5.13,1.51-3.13,1.02-6.31,.19-9.45,.37-3.66,.21-7.3,.81-10.96,1.19-1.76,.18-3.33-.31-3.96-2.11-.61-1.72,.4-3.59,1.95-4.85,2.92-2.36,5.96-2.01,9.27-1.01,2.99,.9,6.02-.04,8.91-.77,5.38-1.35,10.71-2.58,16.35-2.29,2.2,.11,4.44-.75,6.68-1.03,2.89-.37,5.81-.54,8.69-.93,2.01-.27,4.02-.67,5.99-1.19,2.58-.68,4.68-.07,6.09,1.64h.02Z"/>
      <path d="M526.59,95.28c-2.42-.17-5.05-.4-7.69-.51-1.33-.06-2.51-.06-2.64-1.83-.18-2.36,.63-4.16,2.19-4.44,2.2-.4,4.41-.71,6.4-1.03,0-1.49,.21-3.11-.08-4.65-.15-.82-1.04-1.65-1.8-2.17-2.97-2.03-3.27-4.05-.77-6.54,.46-.46,1-.84,1.3-1.08-1.75-.92-3.51-1.58-4.95-2.66-1.59-1.19-1.34-3-.64-4.63,.63-1.46,1.86-2.11,3.45-2.05,2.09,.07,4.18-.4,5.89,1.65,2.01,2.42,2.26,3.82,.18,6.35,1.74,.74,2.61,2.02,2.63,3.94,0,.74,.15,1.62,.57,2.2,1.46,2.02,1.91,4.24,1.7,6.65-.11,1.28,.35,2.14,1.57,2.58,2.71,.98,3.12,5.59,.24,7.05,.21,1.99,.52,3.97,.59,5.95,.1,2.68-1.27,4.12-3.7,4.14-3.41,.03-5.36-1.4-5.28-4.15,.05-1.58,.54-3.14,.84-4.76h0Z"/>
      <path d="M516.63,26.71c5.87,3.42,8.04,5.96,6.13,10.16,1.95,1.45,2.27,2.74,1.42,5.6,1.37,1.15,2.06,3.31,1.41,4.81-.72,1.67-2.04,2.63-3.89,2.72-.58,.03-1.16-.02-1.74-.07-3.06-.23-4.32-2.12-3.55-5.08,.2-.75,.12-1.68-.13-2.43-.56-1.66-.63-3.17,.72-4.48-1.62-1.25-3.25-2.4-4.74-3.69-1.31-1.14-1.95-2.71-1.38-4.39,.58-1.7,1.89-2.73,3.8-2.78,.12,0,.24-.09,.67-.26-.98-.71-1.74-1.53-2.68-1.9-3.33-1.32-3.96-5.29-2.05-7.01-.37-2.91-.66-5.5-1.05-8.08-.1-.67-.7-1.26-.8-1.92-.28-1.8-.91-3.76-.45-5.39,.42-1.51,2.13-2.61,4.04-2.51,1.56,.08,2.74,1.38,2.73,2.97,0,1.1-.19,2.19-.18,3.29,0,.44,.26,.91,.5,1.3,.74,1.19,1.53,2.36,2.31,3.53,1.33,1.97,1.12,4.03-.02,5.88-.57,.92-.27,1.45,.18,1.96,1.36,1.52,1.46,3.36,1.55,5.24,.08,1.63-.4,2.71-2.8,2.53h0Z"/>
      <path d="M546.58,216.89c1.75,3.35,.67,11.05-1.92,12.92,1.28,1.45,1.59,3.06,.71,4.86-.2,.4-.15,.94-.12,1.42,.14,1.94,.52,3.88-.98,5.58-.28,.31-.03,1.09-.02,1.66,.02,1.33,.38,2.78-.06,3.93-.22,.57-1.91,.85-2.91,.8-2.57-.12-1.69-2.2-1.87-3.8-.21-.11-.48-.3-.77-.37-1.28-.32-2.59-.6-2.71-2.28-.14-1.93-.21-3.86,1.96-4.84,.95-.43,1.57-.8,.72-1.95-1.59-2.16-.93-4.3,1.74-5.58-.37-.54-.72-1.06-1.08-1.58-.87-1.27-.9-2.43,.15-3.7,.6-.73,1.13-1.75,1.18-2.66,.15-2.77,.05-2.77,2.28-4.51-3.25-1.93-4.21-3.15-3.27-5.37,.48-1.13,2.03-2.25,3.28-2.52,2.62-.57,5.41,.7,5.95,2.18,.68,1.85-.19,4.1-2.25,5.82h-.01Z"/>
      <path d="M24.04,290.06c3.95,.52,5.4,3.18,4.1,8.1-.34,1.27-1.07,2.44-1.63,3.68,1.7,.31,1.98,1.6,1.78,3.13-.19,1.47-.49,2.85-2.44,2.95-.49,.03-.93,.6-1.44,.83-.9,.4-1.81,.95-2.75,1.05-1.59,.17-3.05-.23-3.22-2.24-.17-1.95,1.09-3.68,2.87-4,.35-.06,.71-.11,1.19-.19-4.6-3.83-4.7-8.94-.15-13.24-2.16,.27-3.8,0-4.97-1.92-1.29-2.11-1.19-8.63,.45-10.18,1.27-1.2,3.04-1.18,4.32-.02,1.5,1.37,2.73,2.89,5.06,3.36,2.45,.5,2.39,4.99,0,6.83-.99,.77-2.19,1.28-3.16,1.84v.02Z"/>
      <path d="M550.41,191.1c1.04,2.37,.92,4.73-1.59,6.52,3.51,4.72,3.73,7.14,.92,8.97-2.66,1.74-7,1.32-8.31-.63-2.35-3.48,.24-7.09,3.13-8.53-3.23-4.04-1.98-6.05-.18-7.34-.18-3.4-.5-6.53-.39-9.64,.02-.68,1.51-1.41,2.43-1.93,1.93-1.11,5.43-.49,6.65,1.3,.49,.71,.74,1.94,.49,2.74-.89,2.84-2.04,5.6-3.15,8.54h0Z"/>
      <path d="M50.64,186.77c2.41,0,4.51-.03,6.59,.01,1.77,.04,2.46,1.04,2.47,3.43,0,2.27-.64,3.19-2.39,3.24-1.96,.05-3.92,.02-5.88,.01-2.53,0-4.11-1.36-4.44-3.71-1.19,.32-2.37,.85-3.57,.92-2.96,.16-4.83-1.81-4.04-4.6,.37-1.29,1.82-2.42,3.02-3.29,1.89-1.37,4.02-2.38,6.48-1.88,.95,.19,2.52,.42,2.66,.94,.33,1.21,0,2.62-.13,3.94-.03,.26-.36,.49-.77,1h0Z"/>
      <path d="M109.54,218.94c-2.1,.94-3.98,2.11-6.03,2.6-1.39,.33-3.13,.04-4.48-.53-1.82-.77-1.34-2.77-1.06-4.18,.18-.92,1.32-2.22,2.16-2.33,2.51-.31,5.07-.15,7.62-.09,.37,0,.74,.46,.97,.62,3.63-2.01,7.33-1.79,11.05-.94,1.69,.39,2.12,1.93,1.59,3.23-.41,1-1.58,2.22-2.55,2.36-2.37,.34-4.82,.19-7.24,.07-.75-.04-1.48-.59-2.02-.82h0Z"/>
      <path d="M569.63,200.05c2.76-.04,5.4,.25,7.73,1.94,1.59,1.15,2.44,3.52,1.7,5.05-.53,1.1-3.69,2.04-5.09,1.68-1.53-.39-3.11-.74-4.69-.82-2.15-.11-4.32,.13-6.48,.09-2.81-.05-3.33-.77-3.28-4.22,.03-2.03,1.28-3.14,3.5-3.25,2.21-.1,4.41-.31,6.61-.46h0Z"/>
      <path d="M213.35,208.99c-1.52,1.58-2.97,3.04-5.24,2.51-.98-.23-2.49-.74-2.64-1.39-.3-1.26-.23-2.98,.45-4.01,1.39-2.12,3.89-2.22,5.91-.69,.61,.46,1.25,.89,1.89,1.34,2.85-2.47,6.25-2.94,9.78-2.23,1.08,.22,2.37,1.2,2.84,2.18,.63,1.32-.36,2.34-1.53,3.36-2.3,2.01-5.09,1.69-7.68,2.06-2.08,.3-3.32-1.06-3.75-3.13h-.03Z"/>
      <path d="M89.23,195.95c-1.88,2.12-4.48,2.18-6.94,1.69-1.3-.26-2.51-1.43-2.56-3.24-.06-1.98,1.12-3.07,2.64-3.62,2.61-.94,5.15-.87,6.88,1.92,2.58-2.84,6.17-2.27,9.3-3.09,.55-.14,1.76,.67,2,1.3,.34,.89,.43,2.22,0,3-1.31,2.33-7.21,4.3-9.73,3.39-.55-.2-.95-.8-1.58-1.35h-.01Z"/>
      <path d="M411.66,215.21c0,2.3-1.41,3.89-3.65,3.78-3.92-.19-7.83-.45-11.73-.86-1.53-.16-3.12-.62-3.12-2.77,0-1.84,1.1-3.32,2.86-3.83,2.41-.7,4.74-.91,7.22-.13,1.25,.4,2.72,.08,4.08,.15,2.54,.12,4.32,1.64,4.33,3.66h.01Z"/>
      <path d="M63.25,194.63h1.37c1.78-.03,3.22,.94,3.59,2.45,.41,1.65,.85,3.91-1.22,4.88-1.23,.57-2.94,.64-4.29,.33-1.82-.41-3.44-.41-5.25,.06-1.65,.42-3.49,.45-5.2,.22-2.16-.28-2.79-2.76-1.33-4.43,1.78-2.04,4.35-2.42,6.73-3.03,1.8-.46,3.72-.38,5.59-.55v.08h.01Z"/>
      <path d="M511.96,207.24c-1.71-.24-3.8,.72-4.85-1.24-.55-1.04-.81-2.58-.45-3.64,.28-.82,1.67-1.49,2.69-1.78,1.6-.45,3.31-.75,4.97-.71,2.91,.07,5.81,.4,8.71,.69,1.24,.13,2.73,2.01,2.67,3.21-.09,1.69-1.31,2.45-2.7,2.6-3.68,.4-7.38,.6-11.04,.87Z"/>
      <path d="M427.14,206.36c-2.62-.38-5.26-.63-7.85-1.17-1.97-.4-2.98-3.39-1.83-5.04,.26-.38,.83-.74,1.27-.76,4.13-.19,8.27-.35,12.41-.41,1.47-.02,3.39,2.33,3.33,3.81-.09,1.99-1.45,3.23-3.55,3.24h-3.73l-.05,.33h0Z"/>
      <path d="M517.95,241.04c-3.86,.13-6.87-3.93-5.68-7.63,.57-1.78,.96-3.75,2.98-4.45,.93-.33,2.13-.39,3.07-.1,1.17,.37,2.14,1.19,1.91,2.77-.23,1.58-.16,2.99,1.79,3.73,1.22,.47,1.33,2.48,.47,3.56-1.35,1.7-2.06,2.02-4.52,2.11h-.02Z"/>
      <path d="M28.25,99.32c-.1,.19-.42,.86-.78,1.5-.22,.39-.73,.72-.75,1.09-.08,2.34-1.45,3.67-3.24,4.98-1.75,1.28-3.38,1.73-4.68,.61-1.58-1.36-1.88-3.74-.4-5.33,.94-1.01,1.27-1.98,1.23-3.3-.08-2.4,1.75-4.02,4.48-4.12,2.58-.1,4.16,1.42,4.14,4.57Z"/>
      <path d="M258.13,200c1.74,.1,3.26,.23,3.8,2.34,.48,1.87-.32,4.34-2.29,4.66-3.26,.54-6.63,.68-9.93,.54-2.19-.09-1.69-2.14-1.68-3.65,.01-1.68,.89-2.13,2.49-2.25,1.62-.12,3.19-.74,4.79-1.11,.94-.22,1.89-.36,2.83-.54h0Z"/>
      <path d="M93.58,212.33c-.72,0-1.45,.08-2.15-.02-1.49-.21-3.26-.06-3.41-2.3-.15-2.32,1.38-4.91,3.13-5.12,1.67-.21,3.35-.36,5.03-.4,2.27-.06,4.33,1.82,4.42,3.91,.07,1.71-2.22,3.83-4.28,3.93-.91,.04-1.83,0-2.74,0h0Z"/>
      <path d="M32.54,198.96c3.54,0,5.15,1.45,5.15,4.64s-1.9,5.57-4.63,5.58c-3.09,.02-5.2-2.26-5.2-5.62s1.24-4.61,4.68-4.61h0Z"/>
      <path d="M548.51,155.17c-1.85-1.25-2.52-2.9-1.65-4.25,1.21-1.89,4.58-3.25,5.82-2.01,.96,.96,1.24,2.63,1.72,4.02,.25,.71,.12,1.59,.46,2.24,1.09,2.1,.32,4.98-1.73,6.05-2.28,1.18-4.57-.16-4.61-2.72-.02-1.03,0-2.05,0-3.32h-.01Z"/>
      <path d="M402.17,207.22c-3.29,0-4.98-1.33-4.58-3.97,.15-1,1-2.12,1.84-2.75,2.35-1.75,7.04-1.52,9.4,.23,1.87,1.39,1.92,3.43-.13,4.51-2,1.05-4.2,1.69-6.32,2.5-.07-.18-.14-.35-.2-.53h0Z"/>
      <path d="M549.81,177.39c-1.15-.55-2.46-.91-3.42-1.69-1.61-1.32-1.34-3.78,.44-4.96,.91-.6,1.32-1.08,1.18-2.33-.27-2.27,.78-3.22,2.99-2.81,.7,.13,1.6,1.07,1.76,1.78,.31,1.47,.2,2.86,1.05,4.38,1.59,2.81-.33,5.18-4,5.63Z"/>
      <path d="M375.26,219.12c-.67-.13-1.58-.21-2.42-.48-2.14-.68-2.85-3.12-1.36-4.79,1.73-1.94,8.04-3.75,10.44-.65,.57,.74,.86,2.29,.47,3.03-.55,1.01-1.77,1.87-2.89,2.31-1.22,.48-2.65,.4-4.24,.59h0Z"/>
      <path d="M117.02,187.74c1.05,.23,2.3,.16,3.11,.74,2.56,1.82,2.22,5.18-.71,6.49-1.98,.88-4.16,.86-6.21-.16-1.67-.83-2.38-2.15-1.94-3.99,.47-1.94,2.1-2.47,3.75-2.85,.62-.14,1.31-.02,1.96-.02,0-.07,.03-.14,.04-.21h0Z"/>
      <path d="M138.09,213.59c2.52,1.37,3.28,3.17,2.33,4.67-.87,1.38-3.58,2.1-4.82,1.28-1.37-.9-1.23-4,.25-5.77-1.71-.77-2.27-2.03-1.79-4.02,.33-1.37,1.97-2.44,3.68-2.09,1.43,.29,2.9,.8,2.98,2.72,.07,1.68,.05,3.24-2.63,3.21h0Z"/>
      <path d="M472.9,181.33c-1.44-.53-3.12-.75-4.25-1.66-2.12-1.71-1.49-4.71,1.15-5.4,1.88-.49,3.94-.49,5.9-.36,1.32,.08,2.33,2.62,2.02,4.56-.25,1.61-1.06,2.62-2.88,2.42-.58-.06-1.18,0-1.76,0-.06,.15-.11,.31-.17,.46v-.02Z"/>
      <path d="M18.45,95.99c-.43,3.45-4.66,6.48-7.58,5.36-1.74-.67-2.31-4.56-.91-6.2,1.49-1.74,4.83-2.82,6.84-1.83,.79,.39,1.11,1.75,1.65,2.67Z"/>
      <path d="M222.44,195.49c.65,0,1.33-.11,1.96,.02,1.54,.32,2.53,1.39,2.3,2.9-.22,1.43-.43,3.19-2.6,3.32-1.14,.07-2.27,.41-3.41,.54-2.16,.25-4.1-.78-4.45-2.29-.44-1.88,.73-3.49,3.13-4.17,.99-.28,2.03-.34,3.05-.5,0,.06,.01,.11,.02,.17h0Z"/>
      <path d="M173.42,80.27c-.45,2.88-2.63,4.3-5.69,3.7-.88-.17-1.75-.4-2.6-.69-1.57-.54-2.25-3.15-1.2-4.44,1.95-2.38,5.1-2.89,7.58-1.06,.8,.6,1.28,1.64,1.9,2.48h.01Z"/>
      <path d="M521.32,51.1c4.24-.14,4.68,1.76,4.33,5.08-.06,.54-.55,1.18-1.03,1.51-1.94,1.35-4.57,1.37-6.14,.1-1.29-1.04-2.06-2.27-1.44-4.04,.76-2.16,1.49-2.65,4.28-2.65Z"/>
      <path d="M553.27,127.39c3.47,0,4.7,.84,4.69,3.2-.01,2.16-2.4,4.28-4.83,4.27-1.97,0-4.19-2.3-4.11-4.24,.1-2.32,1.31-3.24,4.25-3.24h0Z"/>
      <path d="M18.03,115.77c0-2.41,2-4.5,4.31-4.51,1.83,0,3.93,2.17,3.95,4.09,.02,2.11-2.07,4.15-4.26,4.17-2.74,.02-3.99-1.16-3.99-3.75h-.01Z"/>
      <path d="M110.39,213.46c-1.67-.58-3.41-1.02-5-1.78-1.41-.67-1.06-3.38,.44-4.29,2.11-1.28,5.61-.95,7.62,.68,.98,.79,1.74,1.78,1.23,3.01-.5,1.21-1.42,2.19-2.99,2.03-.39-.04-.78,0-1.17,0-.04,.12-.08,.23-.13,.35h0Z"/>
      <path d="M234.87,210.47c-1.81,.3-2.83-1.03-3.41-2.18-.45-.89-.33-2.49,.2-3.36,1.26-2.03,3.61-1.84,5.56-1.52,1.07,.17,2.24,1.27,2.85,2.27,.8,1.3-.72,3.78-2.38,4.26-.92,.26-1.88,.37-2.82,.55v-.02Z"/>
      <path d="M23.56,126.86c.19,1.41-.5,3.05-1.99,3.48-1.48,.42-3.23,1.43-4.91-.18-1.41-1.35-1.28-3.01-.79-4.3,.39-1.03,1.87-1.83,3.04-2.31,.89-.37,2.07-.19,3.09-.06,1.91,.24,1.48,1.8,1.57,3.37h0Z"/>
      <path d="M27.25,316.11c3.07-.01,3.75,.67,3.75,3.75s-.84,3.93-3.51,3.93-4.1-1.62-4.07-4.72c.02-2.07,1.16-2.95,3.83-2.96Z"/>
      <path d="M402.9,232.45c2.48,.33,3.93,1.38,4.04,3.15,.11,1.79-1.48,3.23-3.77,3.34-.98,.05-2.03,.2-2.91-.09-.86-.29-1.98-.93-2.24-1.68-.44-1.28-.28-2.75,1.41-3.37,1.17-.43,2.32-.9,3.48-1.35h-.01Z"/>
      <path d="M83.7,483.61c0,2.42-1.26,3.54-3.99,3.52-2.45-.01-4.27-1.4-4.27-3.26s2.41-3.64,4.73-3.62c2.31,.03,3.53,1.19,3.53,3.36h0Z"/>
      <path d="M550.87,114.24c0-2.63,1-3.52,3.9-3.46,2.18,.04,3.79,1.61,3.76,3.64-.03,1.86-1.97,3.53-4.12,3.53-2.61,0-3.55-.98-3.55-3.7h0Z"/>
      <path d="M361.98,220.19c-3.12,0-3.79-.58-3.8-3.28,0-2.22,1.35-3.41,4.21-3.34,2.31,.06,3.88,.95,3.7,3.42-.19,2.66-.73,3.19-4.11,3.19h0Z"/>
      <path d="M33.34,44.86c-.26,.25-.52,.5-.77,.75-.75,.15-1.57,.55-2.24,.38-1.35-.33-3.37-.64-3.77-1.55-.62-1.41-1.06-3.73,.86-4.74,1.22-.64,3-.77,4.35-.42,1.49,.38,2.29,2.89,1.91,4.49-.09,.37-.22,.73-.33,1.09h0Z"/>
      <path d="M50.89,213.51c-3.52,0-4.54-.57-4.55-2.54,0-2.46,1.29-3.42,4.76-3.32,.83,.02,1.74,.35,2.47,.77,1.53,.89,1.77,2.43,1.31,3.94-.49,1.6-2.02,1.07-3.2,1.15-.26,.02-.52,0-.79,0h0Z"/>
      <path d="M446.8,175.36c2.59,0,3.76,.94,3.79,3.06,.03,2.1-1.61,3.62-3.91,3.63-2.26,0-3.71-1.29-3.7-3.34,.01-2,1.58-3.82,3.82-3.35Z"/>
      <path d="M527.19,404.76c-2.19,.13-3.61-.95-3.88-2.56-.31-1.84,1.67-3.93,3.8-4.08,2.63-.19,3.63,.47,3.75,2.45,.15,2.42-1.29,4.06-3.68,4.19h.01Z"/>
      <path d="M452.06,199.35c2.76,0,4.06,1.06,4.04,3.27-.02,1.86-1.52,2.98-3.96,2.95-2.18-.02-3.9-1.48-3.86-3.27,.04-1.79,1.53-2.96,3.78-2.95Z"/>
      <path d="M8.31,117.2c-2.27-.18-3.02-1.14-2.86-3.64,.13-2.05,1.42-3.06,3.72-2.91,2.31,.15,3.48,1.23,3.35,3.09-.15,2.11-2,3.63-4.21,3.45h0Z"/>
      <path d="M284.48,214.69c-2.02-.01-3.14-1.12-3.08-3.05,.06-1.9,1.4-3.23,3.46-3.05,2.71,.24,3.92,.98,3.75,3.11-.16,1.95-1.5,3.01-4.12,2.99h-.01Z"/>
      <path d="M247.68,183.46c-.08-2.61,.63-3.69,2.47-3.77,2.01-.08,3.78,1.4,3.83,3.21,.05,1.96-1.22,3.42-3.03,3.47-2.96,.08-3.18-.11-3.26-2.92h0Z"/>
      <path d="M271.4,199.35c2.17-.01,3.38,1.06,3.41,3.01,.03,1.91-1.26,3.21-3.24,3.26-1.88,.04-3.44-1.36-3.44-3.1,0-2.02,1.16-3.15,3.27-3.16h0Z"/>
      <path d="M303.93,194.63c-2,0-3.88-1.56-3.93-3.26-.04-1.43,1.95-2.94,3.81-2.89,2.07,.06,3.25,1.06,3.26,2.77,.02,1.99-1.27,3.37-3.13,3.38h-.01Z"/>
      <path d="M130.28,213.11c1.95,0,3.31,1.08,3.36,2.67,.06,1.92-1.44,3.36-3.44,3.33-2.19-.04-3.25-.99-3.24-2.92,0-1.99,1.19-3.08,3.32-3.08Z"/>
      <path d="M461.97,183.62c-1.95,0-3.12-1.19-3.12-3.15s1.18-3.01,3.24-3.05c1.72-.03,3.04,1.2,3.05,2.83,.01,2.01-1.27,3.37-3.17,3.37Z"/>
      <path d="M250.83,157.99c.02,2.12-.79,3.18-2.47,3.21-1.8,.03-3.32-1.6-3.27-3.53,.04-1.77,1.2-3.12,2.71-3.15,1.76-.03,3.01,1.4,3.03,3.47h0Z"/>
      <path d="M555.25,108.51c-2.55,0-2.81-.26-2.8-2.8,0-2.5,.25-2.71,3.1-2.7,2.54,0,2.8,.27,2.8,2.81s-.22,2.7-3.1,2.69Z"/>
      <path d="M253.43,191.88c2,0,2.92,.95,2.87,2.98-.05,2.08-.9,2.93-2.95,2.92-2.03,0-2.85-.87-2.83-2.99,.02-2.12,.81-2.91,2.9-2.9h.01Z"/>
      <path d="M552.05,54.36c.01,2.13-.8,2.99-2.85,3.02-1.77,.03-3.04-1.19-2.85-3.1,.22-2.22,.46-2.89,2.75-2.81,2.19,.07,2.93,.74,2.94,2.89h0Z"/>
      <path d="M14.49,104.94c0,1.88-1.16,3.15-2.9,3.17-1.68,.02-2.98-1.23-3-2.87-.02-1.71,1.16-2.73,3.25-2.77,1.92-.04,2.64,.63,2.65,2.47Z"/>
      <path d="M431.94,183.62c-2.25,0-2.59-.35-2.58-2.64,.01-2.08,.78-2.87,2.78-2.86,1.85,0,2.58,.83,2.53,2.85-.05,1.99-.73,2.65-2.73,2.65h0Z"/>
      <path d="M241.51,197.78c-1.34,.1-2.5-.18-2.47-2.01,.03-1.78,.97-2.65,2.76-2.72s2.44,.75,2.37,2.46c-.08,1.88-.46,2.27-2.65,2.27h-.01Z"/>
      <path d="M385.76,607.13c-1.67,.15-2.44-.54-2.43-2.23,0-1.54,.39-2.52,2.17-2.49,1.66,.03,2.51,.81,2.58,2.47,.08,1.68-.71,2.41-2.32,2.25Z"/>
      <path class="cls-1" d="M277.95,557.61c-.13,.75-.36,1.5-.37,2.26-.03,2.1,.71,2.68,2.95,2.44,1.39-.15,2.23-1.42,1.97-2.98-.33-1.98-1.09-2.37-4.13-2.13,.68-1.78,.85-3.79-1.05-4.56-1.4-.57-3.31-.21-4.88,.18-.67,.17-1.46,1.5-1.45,2.3,0,.92,.61,2.19,1.36,2.67,1.13,.71,2.51,1.79,4.04,.44,.4-.35,1.03-.42,1.56-.62Zm-125.78-72c-.02,.85-.3,1.83,.02,2.52,.41,.86,1.21,1.92,2.04,2.13,2.06,.52,3.3-.51,3.39-2.34,.13-2.66-.26-3.07-2.94-3.07h-1.77c.38-.59,.89-1.13,1.13-1.77,.35-.98,1.01-2.29,.64-2.98-.53-1-1.77-2.01-2.87-2.23-2.76-.55-5.07,.77-7.2,2.48-2.3,1.85-2.13,4.62,.47,6.07,2.55,1.42,4.83,.35,7.09-.79v-.02Zm144.46-26.88c.96-3.39-.72-4.79-3.09-5.78-.34-.14-.56-.68-.89-.73-1.6-.25-3.34-.82-4.78-.41-.68,.19-.9,2.31-1.15,3.6-.12,.66,.17,1.4,.28,2.1,.16,1.04,.06,2.26,.58,3.06,.54,.83,1.7,1.26,2.56,1.84-3.71,2.9-4.13,7.52,.29,11.46-1.98-.19-4.22,.24-5.58-.65-3.24-2.12-6.72-2.45-10.32-2.5-2.2-.03-4.54,.75-6.58,.23-2.82-.72-5.28-.41-7.95,.4-1.85,.56-3.94,1.27-6.16-.14,.64-.4,1.05-.67,1.48-.92,1.55-.9,3.13-1.77,4.66-2.71,1.86-1.14,1.9-3.14,1.26-4.67-.36-.87-2.16-1.46-3.37-1.56-1.26-.1-2.63,.42-3.86,.89-4.69,1.8-8.87,4.8-14.03,5.56-3.06,.45-5.82,2.77-9.2,1.47-.27-.11-.64,.05-.97,.07-2.88,.17-4.67,2.28-6.82,3.78-1.01,.7-2.38,1.57-3.43,1.41-3.29-.51-6.42-.38-9.56,.68-2.04,.69-4.41,.81-6.13,1.95-2.52,1.66-4.92,3.12-8.03,2.57-2.21-.39-3.62,.92-4.44,2.47-.48,.9,.21,2.42,.39,3.77-2.05-.38-3.36,2-5.74,2.42-2.28,.41-4.23,2.49-6.38,3.74-1.6,.93-3.23,1.88-4.97,2.52-3.23,1.19-6.57,2.09-9.82,3.24-2.29,.81-3.23,5.06-1.56,6.62,1.3,1.22,6.58,1.65,8.25,.8,1.59-.81,3.21-1.61,4.9-2.16,3.26-1.05,6.42-2.15,9.02-4.57,.76-.71,2.11-1.05,3.21-1.08,2.29-.05,3.89-1.31,5.72-2.4,2.67-1.59,4.84-4.57,8.62-3.64,.39,.1,.86-.23,1.31-.3,.34-.06,.77-.16,1.02-.01,3.65,2.26,7.35,.91,10.97,.06,1.88-.44,3.46-.77,5,.82,.59,.61,1.77,1.17,2.51,1,2.89-.65,5.72-1.59,8.65-2.45-.04-.11,.11,.25,.23,.62,.77,2.43,2.18,3.56,4.68,3.45,1.11-.05,2.19-.67,3.3-.75,2.34-.17,4.7-.12,7.05-.21,2.31-.09,4.64-.12,6.93-.42,1.93-.26,3.8-.98,5.73-1.3,1.49-.24,3.12,.34,4.39-1.07,.26-.29,1.27-.27,1.66,0,2.28,1.63,4.48,1.54,6.81,.11,.33-.2,1.16-.02,1.49,.28,1.63,1.46,3.33,1.93,5.48,1.13,.79-.3,2.04-.13,2.77,.32,1.7,1.04,3.23,1.11,4.77,0,1.3,1.4,2.56,2.75,3.84,4.13-1.08,1.09-3.11,1.81-3.11,4.35,0,2.4,1.11,3.78,3.1,4.74-1.84,1.64-4.15,1.76-6.07,.46-.51-.34-1.14-.67-1.73-.69-1.98-.08-3.97-.08-5.95-.02-2.34,.07-4.68,.18-7,.41-1.05,.1-2.05,.58-3.1,.75-.93,.16-2.23,.55-2.8,.1-2.93-2.26-6.24-2.22-9.61-2.02-.58,.04-1.28,.69-1.69,.51-3.4-1.51-6.76-.53-9.7,.78-2.65,1.18-5.18,1.43-7.91,1.4-1.88-.02-3.55,.71-4.37,2.33-1.01,1.99-1.06,4.5,.41,6.07,1.98,2.11,4.51,3.77,6.99,5.32,1.75,1.09,3.82,1.67,5.73,2.47-.74,.38-1.39,.74-2.06,1.07-2.45,1.18-4.71,2.2-7.71,1.05-1.84-.71-4.29-.73-6.39,.6-1.49,.94-2.48,1.89-2.03,3.73,.51,2.07,2.01,3.3,3.95,3.32,2.05,.02,4.17-.35,5.87,1.38,.39,.4,1.2,.41,1.82,.58,4.25,1.11,7.95-1.07,11.69-2.33,2.21-.74,4.32-1.34,6.42-.73,2.76,.81,5.19,.64,7.57-.92,.35-.23,.85-.29,1.28-.33,4.13-.38,8.25-.79,12.38-1.09,1.41-.11,3.2-.49,4.19,.18,2.28,1.53,4.36,.87,6.65,.46,1.67,2.76,3.74,3.08,6.89,1.06,1.43,1.3,2.66,2.84,4.26,3.75,1.53,.87,3.53,.79,4.85-.62,.75-.8,1.17-2.09,1.32-3.21,.16-1.18-.11-2.44-.32-3.64-.16-.92-.44-1.82-.78-2.7-.5-1.3-1.53-2.53-.29-4.34,1.08,1.81,2.56,2.77,4.46,2.26,2.33-.63,4.84-1.1,6.83-2.34,2.06-1.27,2.95-4.81,.66-6.55-.82-.63-1.99-.8-3.03-1.19-.54-3.12-1.37-4.48-3.3-4.37-1.97,.12-3.9,.78-5.6,1.15-2.74-1.78-5.51-3.57-8.28-5.37,2.47-2.37,3.42-3.99,2.54-5.83-.61-1.27-2.17-2.09-3.44-3.24,.39-.44,.99-1.41,1.84-2.06,3.43-2.63,3.29-6.42-.38-8.66-.45-.27-.84-.64-1.6-1.23h9.09c.31,0,.71,.02,.93,.2,2.08,1.66,4.53,1.29,6.91,1.41,.98,.05,2.16,.31,2.85,.93,1.9,1.69,4.1,2.19,6.52,2.55,2.75,.41,5.63,.4,8.12,2.09,1.03,.7,2.3,1.14,3.52,1.46,3.33,.86,6.67,1.71,10.05,2.34,3.54,.67,7.15,.99,10.7,1.63,1.87,.34,3.67,1.41,5.52,1.46,4.48,.12,8.7,2.61,13.31,1.41,.26-.07,.64,.12,.91,.28,2.47,1.41,4.8,1,7.09-.45,2.14-1.35,2.18-3.7,.29-5.35-1.48-1.28-3.17-1.14-4.87-1.46-2.62-.49-5.16-1.43-7.78-1.95-2.53-.5-5.12-.64-7.66-1.08-1.44-.25-2.84-.75-4.26-1.15-1.28-.36-2.56-.71-3.81-1.14-1.44-.49-2.8-1.32-4.27-1.54-2.44-.36-4.94-.25-7.4-.54-.65-.08-1.21-.89-1.8-1.37,.62-.59,1.15-1.53,1.87-1.7,1.87-.44,3.82-.5,5.73-.81,1.3-.21,2.6-.51,3.86-.88,1.91-.56,3.79-1.22,5.68-1.85,.89-.3,1.87-.49,2.64-.98,1.76-1.13,2.39-3.18,1.69-5.15-.66-1.84-1.88-2.78-4-2.56-1.82,.19-3.68-.09-5.5,.08-1.3,.12-3.17,.23-3.73,1.05-1.58,2.33-3.67,2.5-6.08,2.64-2.29,.14-4.63,.49-6.8,1.22-1.05,.36-1.69,.46-2.63-.05-1.28-.69-2.67-1.68-4-1.65-1.96,.04-3.13-.83-4.04-2.2-1.08-1.63-2.44-2.34-4.39-2.29-.65,.02-1.73-.43-1.91-.92-.77-2.15-2.53-2.72-4.31-3.17-.2-1.08-.45-2.09-.55-3.11-.14-1.45-.99-1.9-2.28-1.79-1.03,.08-2.05,.3-3.08,.31-.95,0-2.05,.09-2.82-.33-2.38-1.33-4.73-2.05-7.78-.53h.02Zm-72.27-31.98c-.74,.48-1.17,.83-1.67,1.08-1.84,.9-2.93,3.07-2.5,5,.41,1.87,2.62,3.29,4.19,3.16,2.74-.22,5.51-.7,8.13-1.52,3.77-1.18,7.48-2.76,11.49-2.26,3,.37,5.48-.96,7.95-1.99,3.09-1.3,6.17-1.33,9.3-1.08,1.61,.13,2.99,.89,4.18,2.34,2.47,3.02,5.55,3.23,8.98,1.32,1.08-.6,2.44-.72,3.67-1.04,.91-.24,1.83-.54,2.76-.64,2.2-.25,4.43-.67,6.61-.51,2.11,.16,4.18,.69,6.26-.05,1-.35,2-1.15,2.96-1.09,2.49,.18,4.45-.45,5.94-2.51,.26-.36,.85-.5,1.3-.72,2.45-1.22,4.9-2.47,7.37-3.65,2.89-1.38,5.65-3.23,9.06-3.02,2.1,.13,3.55-1.09,4.9-2.35,1.16-1.09,1.7-2.81,.88-4.08-.67-1.04-2.19-1.61-3.43-2.19-.73-.34-1.71-.15-2.45-.47-2.85-1.25-5.58-1-8.39,.19-1.03,.44-2.26,.62-3.4,.6-3.5-.06-7.03-.66-10.48-.33-4.12,.4-8.17,1.55-12.25,2.39-1.34,.28-2.68,.59-4.19,.93,.76-3.35,.21-4.98-1.78-5.98-1.77-.89-4.52-.05-6.23,1.16-1.45,1.02-1.64,3.01-4.26,3.37-4,.55-7.19,.18-10.01-2.66-1.1-1.11-2.33-1.71-3.98-1.62-2.28,.12-4.67,.4-6.85-.1-4.02-.91-7.79-.52-11.57,.89-.82,.3-1.78,.43-2.64,.34-3.03-.3-6.06-1-9.08-1.01-2.25-.01-4.56,.62-6.74,1.3-1.2,.37-2.88,1.24-3.14,2.21-.44,1.67-.9,3.77,.78,5.12-1.09,.81-2.18,1.57-3.23,2.39-1.44,1.13-1.37,2.82-.66,4.05,.63,1.09,1.99,2.25,3.17,2.41,2.59,.37,5.26,.12,7.89,.15,.23,0,.46,.18,1.16,.48h0Zm45.27,16.8c.88-.18,1.88-.16,2.59-.6,.72-.44,1.27-1.28,1.71-2.06,.42-.75,.83-1.64,.83-2.47,0-1.44-2.5-3.52-3.97-3.55-3.2-.05-5.5,1.04-5.79,2.73-.59,3.52,.21,4.89,3.6,6.21-3.09,.27-4.28,1.55-4.78,5.18-.4,2.92-.05,3.46,2.8,4.49-.55,1.75-1.29,3.46-1.58,5.24-.36,2.19,1.16,3.43,2.94,4.35-1.56,1.75-2.44,4.87-1.64,6.23,.94,1.61,2.63,1.09,3.92,.88,3.49-.57,3.65-3.34,3.44-5.41,1.69-1.13,3.53-1.71,4.09-2.9,.79-1.67,.2-3.55-1.87-4.52-.51-.24-1.01-.92-1.15-1.48-.59-2.37-1.91-3.69-4.22-3.37,.73-1.6,1.93-3.14,2.02-4.74,.1-1.71-.67-3.61-2.94-4.22h0Zm-79.14,101.15c1.24,2.25,1.95,2.82,3.78,2.16,.92-.33,2.09-1.46,2.19-2.35,.53-4.56-2.86-3.31-5.27-3.34-.26-.55-.5-1.06-.74-1.58,1.9-.16,3.58-.88,4.05-2.75,.31-1.24,.63-2.86-1.23-3.69-1.61-.71-3.07-1.32-4.67-.02-1.71,1.4-1.92,2.65-.88,5.2-1.32-.28-2.55-.66-3.81-.78-1.33-.13-2.69-.15-4.01,.02-1.58,.2-2.72,.98-3,2.78-.32,2.03,.52,3.49,2.13,4.42,.74,.43,1.83,.24,2.88,.34-1.28,.94-2.45,1.79-3.6,2.65-1.56,1.18-1.14,2.89-.85,4.33,.31,1.51,1.83,1.12,2.97,1.15,.46,.01,.92,0,1.37,0,4.6-.04,7.34-3.18,6.8-7.73,.61-.26,1.2-.52,1.9-.83v.02Zm70.36-149.05c-2.43-1.2-4.74-1.01-7.06-.08-1.65,.66-1.8,2.01-1.8,3.51s.06,3.09,1.78,3.49c2.17,.51,4.45,1.03,6.62,.84,1.91-.17,3.41-.1,4.83,1.23,.49,.46,1.22,.68,1.85,.98,2.68,1.29,5.35,.37,7.82-.47,.98-.33,1.78-2.18,2.02-3.46s.14-2.94-1.67-3.51c-1.55-.49-3.09-1-4.7-1.52-.13-2.63-1.07-4.7-2.52-4.97-3.38-.63-5.78,.76-7.17,3.96h0Zm75.37,181.86c-2.71,.69-3.53,2.32-3.12,4.22,.26,1.19,1.16,2.68,2.19,3.18,2.73,1.33,5.44,.56,7.67-1.39,1.86-1.62,3.46-3.55,5.31-5.18,2.12-1.87,2.31-4.01,.42-6.04-.59-.64-1.1-1.44-1.39-2.26-.7-1.97-2.23-2.99-4.09-2.97-4.25,.05-7.41,2.42-9.78,5.69-1.39,1.92-.2,4.09,2.8,4.74h-.01Zm-120.7-9.16c-.88-1.06-1.54-2.62-2.43-2.77-4.26-.72-6.52,1.75-7.21,5.63-.27,1.54,1.13,2.68,2.67,2.94,2.32,.38,3.8-.82,5.37-2.77,.92,4.4,3.93,4.87,7.34,4.72,.48-.02,.98,.21,1.45,.37,3.26,1.13,4.85,1.39,7.59-1.24,1.37-1.31,1.68-2.89,1.07-4.23-.62-1.38-2-2.41-3.86-2.42-2.13-.02-4.39,.09-6.37-.54-2.15-.69-3.98-.95-5.63,.32h0Zm72.51-209.84c.31-.89,.56-1.82,.96-2.67,.44-.92,1.04-1.76,1.54-2.66,.79-1.4,1.55-2.76-.35-4-2.51-1.65-3.97-1.73-5.69,0-.79,.79-1.41,1.77-2.22,2.55-1.45,1.38-2.46,2.79-1.73,4.97,.72,2.16,2.34,2.73,4.37,2.77-1.28,2.4-.65,4.75,1.49,5.71,1.54,.69,4.49-.47,5.2-2.05,.93-2.08-.19-3.51-3.58-4.61h.01Zm-8.5,238.51c-.56-.93-.92-2.16-1.74-2.72-1.38-.94-3.06-1.45-4.6-2.15-2.6-1.2-5.12-1.01-7.81-.06-2.14,.76-1.82,2.42-1.45,3.64,.29,.96,1.66,2.16,2.62,2.23,1.94,.14,3.22,.97,4.45,2.27,1.25,1.32,2.8,2.17,4.65,1.67,1.86-.5,3.48-2.82,3.87-4.87h.01Zm15.76-154.16c.29-2.18,.65-3.85,.67-5.53,0-.55-.78-1.5-1.31-1.59-2.14-.36-4.26-.12-6.19,1.04-1.61,.97-2.7,2.2-2.25,4.26,.39,1.79,.77,3.59,1.13,5.38,.42,2.06,2.04,2.6,3.76,2.76,1.98,.19,3.83-.46,4.76-2.31,.78-1.55,.53-3.18-.57-4.02h0Zm-7.14-104.25c1.26-1.99,1.27-5.79-.26-6.25-1.7-.51-4.15-.69-5.47,.2-2.5,1.68-2.2,3.41,.19,6.16-2.52,3.52-2.56,4.48-.24,6.39,1.31,1.08,5.4,.61,6.69-.76,1.68-1.79,1.5-2.99-.92-5.73h.01Zm79.73,205.57c.83,0,1.34,.16,1.58-.03,.99-.75,2.24-1.45,2.72-2.48,.36-.76,.02-2.35-.6-2.98-2.13-2.14-5.35-2.11-7.78-.22-1.08,.84-1.35,2.63-.4,3.61,.79,.81,1.77,1.45,2.54,2.06-.81,.36-2.12,.57-2.79,1.34-.67,.78-.98,2.11-.96,3.19,.02,1.48,1.96,2.87,3.59,2.92,2.23,.06,4.22-1.27,4.74-3.18,.47-1.71-.23-2.99-2.63-4.23h0Zm-80.67-155.2c-1.52,2.19-1.93,5.19-.87,6.47,1.06,1.29,2.3,2.18,4.05,1.49,2.29-.91,3.24-2.39,2.85-4.8-.17-1.01-.66-2.21-1.42-2.81-.73-.58-1.98-.49-3.17-.72,.88-.63,1.96-1.02,2.32-1.77,.4-.84,.4-2.06,.12-2.98-.36-1.21-4.05-2.43-5.51-2.06-1.46,.37-2.26,2.01-2.11,4.31,.1,1.59,1.34,2.54,3.75,2.87h0Zm-114.12,124.79c-1.94-1.96-4.26-1.85-6.56-.9-1.68,.7-1.14,2.43-.94,3.65,.14,.88,1.03,1.77,1.8,2.39s2.08,.67,2.67,1.37c1.21,1.45,2.73,1.21,4.13,1,1.22-.18,2.43-.79,3.51-1.42,1.54-.9,2.19-3.48,1.36-4.75-1.32-2.03-3.78-2.6-5.97-1.35h0Zm-99.13-243.5l.02-.17c1.31,0,2.62,.02,3.93,0,2.12-.04,3.56-1.36,3.73-3.41,.19-2.21-.8-3.51-3.29-3.62-2.64-.11-5.31,.04-7.93,.36-2.48,.31-3.71,1.73-3.98,3.98-.14,1.2,.2,2.12,1.54,2.27,1.99,.23,3.99,.4,5.99,.59h-.01Zm114.31-1.75c.08,.18,.16,.35,.24,.53,2.1-.98,4.38-1.71,6.23-3.04,.84-.6,1.05-2.35,1.17-3.61,.14-1.44-1.04-1.99-2.27-2.46-2.75-1.05-5.27-.03-7.62,1.04-1.06,.48-2.01,1.9-2.35,3.09-.7,2.42,1.61,4.85,4.6,4.44h0Zm10.23,296.13c-1.44,0-2.87-.04-4.31,.01-1.86,.07-3.72,2.02-3.69,3.8,.03,1.76,1.76,3.15,3.76,3.29,3.16,.23,6.08-.48,9.03-1.54,2.01-.72,1.56-2.19,1.49-3.51-.07-1.33-.97-2.06-2.36-2.05h-3.92Zm12.26-8.65c3.79,.41,6.96-3.6,5.74-8.01-.19-.69-.96-1.5-1.63-1.73-1.92-.66-3.85-.77-5.79,.31-1.72,.97-2.07,2.34-2.5,4.17-.82,3.56,.85,5.56,4.18,5.26h0Zm66.66-58.48c.18,.93,.07,2.09,.59,2.75,1.45,1.84,3.07,3.37,5.86,3.11,1.97-.18,3.18-1.41,3.66-2.72,.41-1.12-.25-2.85-.89-4.08-.5-.95-1.59-1.77-2.6-2.24-1.32-.61-3.02-1.44-4.19-1.06-1.59,.51-2.84,2.09-2.43,4.24h0Zm-70.79,17.98c1.05-.29,3.05-.43,4.5-1.4,.96-.64,1.44-2.43,1.57-3.75,.13-1.37-.28-3.03-2.19-3.07-1.87-.04-3.78,.06-5.62,.38-2.19,.38-3.53,2.53-3.21,4.69,.28,1.84,2.02,3.15,4.95,3.15h0Zm-46.97,7.91c-.8,2.23-.68,4.83,.27,5.54,1.41,1.05,3.57,.94,5.19-.35,1.36-1.08,2.02-2.53,1.51-4.24-.54-1.81-2.14-2.48-4.95-2.31-.28-2.91-1.79-4.4-4.09-4.04-1.85,.29-2.98,1.51-2.67,2.92,.41,1.89,2.56,3.01,4.74,2.48h0Zm160.36,49.87c.03-.12,.06-.25,.09-.37h3.73c1.83-.18,3.21-1.31,3.28-2.71,.07-1.36-1.65-3.93-2.95-3.88-2.68,.1-5.39-.7-8.06,.62-2.25,1.11-3.01,3.58-.94,5.04,1.29,.9,3.21,.91,4.85,1.31h0Zm-24.37,20.93c.06-.15,.12-.31,.18-.46,.52,0,1.05-.02,1.57,0,1.73,.1,3.07-.65,3.77-2.17,.76-1.64,.85-3.45-.35-4.93-.49-.6-1.57-1.2-2.26-1.08-2.3,.4-4.66,.86-6.76,1.81-2.11,.95-2.16,4.03-.22,5.19,1.24,.75,2.71,1.11,4.08,1.65h0Zm-38.33-48.2c-1.89-1.76-3.76-1.12-5.2-.08-1.36,.98-1.3,2.66-.66,3.47,.73,.92,2.36,1.52,3.61,1.54,2.01,.02,3.2-1.25,2.88-3.47,4.07,.92,5.83,.42,6.24-1.73,.46-2.37-.4-4.42-1.95-4.68-3.4-.56-4.47,.51-4.92,4.96h0Zm216.96-141.03c-.52,0-1.05-.04-1.56,0-2.27,.22-4.21,2.14-4.01,3.92,.35,3.21,2.06,4.72,5.34,4.72,2.87,0,5.24-2.11,5.17-4.59-.08-2.86-1.53-4.05-4.93-4.05h-.01Zm-213.28,187.18c.57-1.95-.68-3.01-2.39-3.03-1.81-.02-3.8,.27-5.41,1.04-2.29,1.1-2.66,5.33-.89,6.76,2.26,1.83,4.49,1.03,6.56-.23,1.56-.95,2.6-2.38,2.14-4.54h0Zm-107.18-56.63c.65-.09,1.74-.39,2.81-.36,1.39,.05,2.24-.72,2.36-1.82,.1-.94-.34-2.05-.84-2.91-.56-.96-1.52-1.67-2.19-2.57-1.03-1.39-3.24-2-5.29-1.35-1.64,.52-1.26,1.9-1.29,3.09-.02,.65-.01,1.3,0,1.96,.04,2.46,1.55,3.94,4.45,3.97h0Zm178.02,44.29c0-2.98-.89-4.03-3.84-3.72-1.51,.16-3.09,.88-4.37,1.75-1.72,1.17-2.47,3.55-1.9,4.74,.89,1.83,2.88,2.51,5.42,1.84,3.8-1,4.68-1.86,4.68-4.6h0Zm-49.05,1.41c-3.45,.28-4.03,.73-4.04,3.33-.01,2.99,3.5,5.65,6.71,5.25,1.97-.25,3.31-1.03,3.49-3.13,.16-1.82-.36-3.91-2.57-4.39-1.22-.26-2.4-.7-3.6-1.06h.01Zm115.12-71.88c0-2.49-.99-3.58-3.46-3.72-1.24-.07-2.49,.06-3.72-.03-1.76-.13-2.94,.66-3.38,2.26-.52,1.87,.57,4.3,2.2,4.68,1.78,.41,3.7,.63,5.5,.45,2.19-.22,2.87-1.35,2.86-3.64Zm-114.22-133.57c.2,.07,.41,.14,.61,.22-1.32,1.11-1.83,2.43-.84,3.93,.93,1.41,2.96,1.83,4.74,1.02,1.59-.72,1.62-2.04,1.31-3.57-.11-.56,.29-1.29,.61-1.87,1.63-3.01,.39-5.07-2.94-5.22-1.78-.08-2.79,.96-3.41,2.12-.47,.89-.09,2.23-.09,3.37h.01Zm42.5,184.21c-.75,2.8-.31,4.25,1.66,5.48,1.46,.91,2.6,0,3.68-.81,1.02-.77,1.11-3.23,.41-4.89-.84-1.99-2.42-1.45-3.92-1.27-.31-3.66-.41-3.74-2.99-3.73-1.56,0-2.26,.64-2.25,2.22,.01,2.18,.64,2.79,3.41,3.02v-.02Zm22.58-38.25h.98c3.05-.02,4.83-3.01,3.38-5.68-1.34-2.47-5.91-2.82-8.12-.55-.49,.5-.91,1.32-.93,2-.08,2.89,.68,4.4,4.69,4.23h0Zm-68.68,49.79c2.36-.73,3.19-1.87,2.98-4.01-.15-1.56-1.29-2.03-2.56-2.09-.71-.03-1.84,.19-2.09,.66-.62,1.18-.84,2.57-1.23,3.92-3.11,.25-4.19,1.11-3.94,3.25,.2,1.77,2.05,3.1,3.95,2.84,2.54-.35,3.46-1.8,2.9-4.57h-.01Zm67.54-20.27c-.06-.13-.11-.26-.17-.38-1.52,.59-3.18,.96-4.54,1.81-1.89,1.19-1.59,3.94,.35,4.78,2.33,1.01,4.75,.99,6.99-.06,1.36-.64,2.63-1.69,2.42-3.63-.2-1.82-1.69-1.95-2.92-2.36-.66-.22-1.42-.12-2.14-.16h.01Zm-62.43-8.29c-.92,0-1.87-.15-2.74,.04-.86,.19-2.25,.62-2.34,1.12-.24,1.36-.89,3.06,.69,4.14,2.63,1.8,5.59,.7,8.41,.8,.26,0,.72-.5,.77-.82,.2-1.32,.62-2.74,.31-3.95-.35-1.35-1.82-1.46-3.14-1.34-.65,.06-1.31,0-1.96,0h0Zm-65.63-18.97c1.28-.38,2.79-.46,3.76-1.23,.87-.69,1.43-2.09,1.6-3.25,.11-.74-.6-2.17-1.2-2.33-1.7-.45-3.58-.73-5.29-.45-1.47,.24-3.19,.95-3.38,2.94-.25,2.58,1.39,4.04,4.52,4.32h0Zm183.34-2.64c-.65,0-1.46-.25-1.93,.05-1.23,.77-2.8,1.55-3.34,2.73-.77,1.67,.41,3.73,1.78,4.22,1.8,.65,6.2-.06,6.88-1.12,.07-.11,.14-.22,.18-.34,1.33-3.28-.13-5.54-3.57-5.54h0Zm-148.13,42.44c1.28-.17,2.5-.3,3.72-.5,1.86-.3,2.5-1.51,2.15-3.25-.32-1.53-1.21-2.53-2.92-2.52-1.63,0-3.33-.28-4.87,.1-1.05,.25-2.29,1.25-2.69,2.23-.61,1.48-.02,2.99,1.78,3.5,.92,.26,1.91,.31,2.84,.45h0Zm133.2-72.31c-1.08,.49-2.21,.9-3.22,1.5-1.61,.95-2.39,3.26-1.2,4.82,.7,.91,2.4,1.1,3.69,1.45,.49,.13,1.11-.21,1.67-.34,2.08-.46,3.38-2.41,3.08-4.63-.19-1.42-1.91-2.51-4.02-2.8Zm-95.56-86.34c-.04-3.01-1.18-3.81-5.32-3.75-2.08,.03-2.93,1.13-2.84,3.66,.09,2.44,1.76,4.16,4.07,4.18,2.17,.02,4.11-1.92,4.08-4.09h.01Zm21.33,99.51c0-2.69-1.08-3.57-4.46-3.61-2.33-.03-4.22,1.69-4.2,3.83,.02,1.97,1.57,3.47,3.58,3.48,3.69,.01,5.07-.99,5.07-3.7h.01Zm187.76-225.96c.68,0,1.21,.02,1.73,0,3.04-.14,4.28-2.04,3.18-4.88-.82-2.13-2.07-2.57-5.14-1.81-2.37,.58-3.41,2.25-3.09,4.97,.28,2.36,2.12,1.56,3.32,1.73h0Zm-216.3,26.34c.33,0,.66-.03,.98,0,2.45,.3,4.25-1.94,3.13-4.76-.71-1.77-4.91-2.75-6.77-1.49-.77,.52-1.55,1.4-1.77,2.26-.68,2.58,1.49,4.36,4.43,3.99h0Zm94.21,266.96c0-2.35-1.21-3.51-3.62-3.48-2.7,.03-4.1,1.48-4.14,4.27-.03,2.43,1.07,3.58,3.35,3.51,2.69-.08,4.42-1.76,4.41-4.3h0Zm-44.39-18.06v.02c.46,0,.93,.06,1.37-.01,1.35-.23,2.48-.69,2.53-2.39,.07-2.38-.65-4.05-2.2-4.21-1.26-.13-2.57,.08-3.84,.26-2.3,.34-2.22,2.07-2.27,3.85-.05,1.83,1.26,2.09,2.48,2.45,.59,.18,1.28,.03,1.93,.03Zm-12.05-51.1c2.75,0,4.14-1.3,4.14-3.88,0-2.42-.8-3.15-3.49-3.19-2.98-.04-4.4,1.09-4.46,3.55-.05,2.25,1.32,3.52,3.8,3.52h0Zm-110.31,61.84c.11-.16,.21-.33,.32-.49,3.28,0,5.06-2.48,3.46-4.97-1.15-1.79-3.17-2.09-5.03-1.62-1.02,.26-2.12,1.23-2.61,2.18-.34,.67-.01,2.11,.55,2.72,.87,.95,2.18,1.48,3.31,2.19h0Zm27.37-17.02c2.52,0,4.1-1.36,4.11-3.54,0-2.11-1.37-3.15-4.15-3.14-2.52,0-4.11,1.37-4.11,3.54s1.37,3.14,4.15,3.14Zm153.91-64.1c-2.84,0-4.14,1-4.25,3.26-.1,2.09,1.41,3.43,3.88,3.43,2.99,0,3.93-.88,3.93-3.67,0-2.94-.08-3.01-3.56-3.01h0Zm-32.62,65.81c0-2.25-1.37-3.49-3.89-3.51-2.59-.02-4.26,1.23-4.39,3.1-.16,2.21,2.23,3.36,4.69,3.7,2.07,.28,3.59-1.28,3.59-3.29h0Zm-157.45-6.87c1.23-.11,2.92,.57,3.25-1.46,.16-.95,.34-2.11-.05-2.9-.5-1.02-1.43-2.25-2.41-2.52-1.15-.31-2.94-.1-3.75,.64-1.03,.95-1.79,2.6-1,4.24,.78,1.63,2.01,2.52,3.96,2h0Zm155.13,22.06c2.14,.44,4.55-1.56,4.62-3.95,.05-1.78-1.3-3.1-3-3.12-2.14-.02-4.74,2.25-4.81,4.21-.06,1.64,1.28,2.85,3.18,2.87h.01Zm-138.32-29.5c-.09-.16-.19-.32-.28-.48-1,.59-2.21,1-2.96,1.83-.92,1-.95,2.41-.03,3.52,1.47,1.77,3.49,1.58,5.35,.96,.82-.27,1.75-1.17,2.01-1.98,.76-2.36-.92-3.84-4.08-3.84h-.01Zm193.45-51.53c-2.91,0-4.05,.89-4.04,3.14,0,2.02,1.85,3.57,4.2,3.54,1.5-.02,3.52-2.03,3.55-3.54,.04-1.96-1.35-3.14-3.7-3.14h-.01Zm-120.46,99.1c2.25,0,3.53-1.03,3.56-2.87,.02-1.71-2.13-3.88-3.92-3.8-2.38,.11-3.79,1.35-3.6,3.32,.21,2.27,1.28,3.34,3.97,3.34h0Zm31.38-136.84c-2.72,0-3.81,.91-3.83,3.22-.02,2.1,.97,3.14,3.02,3.17,2.95,.04,4.33-.98,4.32-3.19,0-2.03-1.29-3.2-3.51-3.2h0Zm-37.4-188.36c2.67,0,4.05-1.03,4.07-3.02,.02-2.2-1.2-3.31-3.89-3.13-2.4,.16-3.69,.8-3.6,3.07,.1,2.38,.8,3.09,3.42,3.09h0Zm-23.61,321.27c-2.24,0-3.37,1.08-3.39,3.25-.02,2.14,1.35,3.41,3.69,3.43,1.78,.02,3.37-1.61,3.39-3.47,.02-2.07-1.29-3.2-3.69-3.21ZM103.38,435.66c0,2.33,.68,3.13,2.69,3.14,2.08,.02,3.99-1.93,4-4.08,0-2.37-.28-2.61-3-2.61s-3.69,.94-3.69,3.54h0Zm277.55,89.67c2.69,0,2.85-.18,2.84-3.14,0-2.26-1.22-3.54-3.34-3.54-1.77,0-3.34,1.65-3.34,3.52,0,2.22,1.16,3.17,3.85,3.17h-.01Zm51.79-31.86c2.56,0,3.59-.96,3.79-3.05,.22-2.27-1.77-2.99-3.61-3.05-2.17-.08-3.74,1.37-3.75,3.25,0,1.73,1.4,2.86,3.58,2.86h-.01Zm-93.38,41.08c0,2.1,.9,2.91,3.21,2.9,2.14,0,3.86-1.46,3.87-3.27,0-1.82-1.46-2.98-3.75-2.98s-3.32,1.1-3.32,3.34h0Zm-19.78,56.44c1.93-.01,3.68-1.51,3.51-3.28-.2-2.01-1.03-3.58-2.87-3.44-2.33,.18-3.69,1.33-3.67,3.48,.02,2.44,.78,3.25,3.03,3.24h0Zm-107.79-52.69c-2.58-.03-3.75,.93-3.78,3.05-.02,1.8,1.46,3.21,3.34,3.19,1.97-.03,3.75-1.69,3.73-3.49-.01-1.62-1.35-2.73-3.3-2.75h0Zm107.52,16.12c-2.27,0-3.56,1.22-3.55,3.36,0,1.82,1.28,2.93,3.34,2.93,2.19,0,3.36-1.25,3.34-3.58-.01-2.03-.79-2.71-3.13-2.71h0Zm55.17-36.18c2.68,0,3.39-.59,3.41-2.82,.02-2.04-1.21-3.32-3.17-3.32-2.19,0-3.51,1.2-3.52,3.18,0,2.36,.66,2.96,3.28,2.96Zm-143.85,40.11c-2.53-.32-3.44,.97-3.47,3.02-.03,2.07,1.01,3.27,2.7,3.27,1.97,0,4.01-1.89,4.03-3.73,.02-1.79-.97-2.56-3.26-2.56h0Zm158.88-22.02c-.96,.49-2.35,.74-2.76,1.52-.55,1.04-.49,2.43,.67,3.54,1.49,1.43,3.21,.93,4.74,.59,.53-.12,.97-1.78,1.01-2.76,.09-1.93-.82-2.49-3.66-2.89Zm-180.98-12.6c.12-1.55-1.07-2.7-2.95-2.84-2.1-.16-3.57,1.06-3.68,3.03-.08,1.43,1.21,2.88,2.67,2.99,1.8,.14,3.83-1.49,3.96-3.19h0Zm-14.35,.42c-2.86,0-3.08,.18-3.09,2.7,0,2.57,.22,2.8,2.77,2.81,2.54,0,3.4-.64,3.39-2.59-.01-2.23-.73-2.91-3.07-2.92Zm-53.74-23.59c-2.33,0-3.08,.69-3.11,2.92-.03,1.77,1.14,2.89,2.97,2.84,2.54-.07,3.21-.65,3.21-2.8,0-2.27-.7-2.95-3.07-2.96Zm378.62-240.27c0-2.39-.54-2.91-3.01-2.88-2.31,.02-2.88,.54-2.89,2.63,0,2.29,.7,2.99,3.03,3,2.6,.01,2.86-.24,2.87-2.74h0Zm-251.63,313.79c2.32,0,3.1-.69,3.1-2.74s-.77-2.7-3.28-2.78c-2.57-.09-2.6,.82-2.82,2.76-.23,2.03,.75,2.77,3,2.77h0Zm33.63-79.28c-.01,2.29,.58,2.98,2.54,2.98,1.84,0,3.11-1.19,3.12-2.92,.01-1.75-1.23-2.96-3.06-2.98-2.01-.02-2.58,.63-2.6,2.92Zm-31.7,57.23c0-2.42-.33-2.75-2.66-2.73-2.05,.02-2.85,.79-2.84,2.77,0,1.97,.8,2.72,2.88,2.73,2.31,.01,2.62-.32,2.62-2.77Zm1.57,12.93c-.34,1.96,1.29,2.77,2.83,2.93,1.44,.14,2.77-1.16,2.81-2.59,.04-1.46-1.42-2.9-3.01-2.96s-2.62,.96-2.63,2.63h0Zm0-26.69c-.16,1.59,.52,2.44,2.33,2.39,1.99-.06,2.75-.84,2.8-2.85,.05-1.85-.9-2.34-2.56-2.29-2.23,.07-2.59,.38-2.57,2.76h0Zm118.92-19.1c-1.37,.02-2.39,1.2-2.39,2.77,0,1.67,1.25,2.99,2.74,2.9,1.39-.08,2.54-1.34,2.5-2.73-.04-1.44-1.51-2.95-2.85-2.94h0Zm-17.44-46.57c2.34,0,2.65-.37,2.76-2.42,.1-1.91-1.03-2.36-2.53-2.43-1.9-.08-2.56,.66-2.62,2.52-.06,1.82,.81,2.5,2.4,2.33h-.01Zm5.82,78.26c1.54,.16,2.48-.43,2.43-2.28-.05-2.04-.42-2.39-2.59-2.46-1.65-.05-2.61,.44-2.56,2.29,.06,2.04,.42,2.44,2.72,2.44h0Zm-227.61-34.99c-.04-1.74-.76-2.66-2.44-2.76-1.83-.11-2.35,.84-2.33,2.51,0,1.59,.32,2.68,2.22,2.62,1.69-.05,2.45-.9,2.55-2.38h0Zm209-74.31c-2.17,0-2.49,.43-2.61,2.43-.12,1.94,1.09,2.34,2.54,2.45,1.35,.1,2.67-1.17,2.48-2.44-.2-1.39-.64-2.77-2.42-2.44h0Zm-105.32,96.37c-1.72-.46-2.39,.84-2.46,2.27-.07,1.35,.61,2.57,2.28,2.54,1.45-.03,2.7-.29,2.67-2.26-.02-1.64-.4-2.72-2.49-2.55h0Zm250.46-272.15c-1.61-.13-2.26,.69-2.24,2.33,.02,1.48,.06,2.7,2.05,2.81,1.9,.11,2.37-1.09,2.57-2.48,.22-1.56-.82-2.64-2.39-2.67h.01Zm-347.1,248.18c.23-1.68-.6-2.48-2.29-2.48s-2.5,.61-2.45,2.43c.04,1.59,.53,2.39,2.24,2.4,1.65,0,2.67-.45,2.5-2.36h0Z"/>
      <path class="cls-1" d="M467.18,460.54c-.02,.2-.08,.4-.05,.58,.47,3.36-.57,6.16-2.78,8.74-.78,.91-.95,2.44-1.14,3.73-.52,3.47-1.83,6.59-3.89,9.39-.42,.57-1.32,.76-1.87,1.26-.91,.84-1.78,1.75-2.55,2.73-2.03,2.56-3.99,5.18-5.98,7.77-.31,.4-.92,.72-.99,1.14-.72,3.93-4.02,6.03-6.26,8.92,1.31-4.3,6.05-7.31,4.59-12.7,2.67-.1,4.91-1.33,5.45-3.81,.96-4.42,4.25-7.33,6.25-11.05,.92-1.71,1.6-3.56,2.43-5.33,.27-.56,.6-1.13,1.02-1.58,1.89-2.01,2.23-3.36,1.42-5.97,1.47-1.26,2.94-2.51,4.41-3.76l-.05-.05h-.01Z"/>
      <path class="cls-1" d="M467.23,460.59c.2-.88,.38-1.77,.61-2.65,.11-.43,.45-.82,.48-1.24,.25-3.52,2.24-6.07,4.48-8.57,1.29-1.44,1.02-2.94-.45-4.79,2.02-1.52,4.97-1.89,5.64-5.06,.29-1.4,1.18-2.68,1.81-4.01,.03-.07,.22-.07,.33-.11l-.04-.04c-.7,2.44-1.23,4.95-2.13,7.3-.93,2.41-2.21,4.69-3.38,7.01-.28,.56-.63,1.23-1.14,1.49-1.89,.99-2.21,2.68-1.95,4.46,.19,1.32-.14,2.18-1.09,3.02-1.12,.98-2.15,2.07-3.22,3.12l.06,.05v.02Z"/>
      <path class="cls-1" d="M480.14,434.17c-.14-1.02-.47-2.06-.34-3.04,.09-.73,.62-1.64,1.24-2.02,2.58-1.61,4.91-6.43,4.43-8.99,1.91-.81,3.74-1.59,5.92-2.52-.82,1.59-1.65,3.16-2.44,4.74-.33,.68-.56,1.41-.86,2.1-.63,1.44-1.14,2.82-2.62,3.84-1.97,1.36-4.08,2.8-4.77,5.4-.05,.19-.39,.3-.6,.45l.04,.04h0Z"/>
      <path class="cls-1" d="M493.55,396.65c1.47-.75,2.8-1.42,4.08-2.07,1.03,3.98-.85,7.33-2.98,10.68-.57,.89-.56,2.16-.74,3.27-.12,.72,.07,1.52-.18,2.17-.49,1.29-1.19,2.5-1.91,3.94-.25-1.7-.32-3.4-.78-4.99-.38-1.3-1.22-2.46-1.91-3.79,2.19,.05,4.3-.27,5.45-2.88,1.09-2.47,.15-4.37-1.03-6.34h0Z"/>
      <path class="cls-1" d="M292.86,602.81c-.85,2.83-.03,5.26,2.01,5.44,2.02,.18,4.1-.25,6.45-.1-.58,.32-1.15,.91-1.73,.92-4.62,.08-9.24,.04-13.76,.04v-4.94c2.39,1.6,4.7,.38,7.04-1.36h-.01Z"/>
      <path d="M399.09,550.5c-1.26,.81-2.45,1.39-4.13,.91-2.12-.61-2.28-2.01-2.17-3.74,.11-1.81,1.52-2.36,2.88-2.61,2.5-.46,4.4,.21,3.79,5.07l-.37,.37Z"/>
      <path class="cls-1" d="M361.53,594.14c-.78-2.2-1.9-3.84-5.09-2.82,1.02-1.33,1.68-2.2,2.26-2.96,1.54-.14,3.15-.15,4.67-.52,.45-.11,.64-1.26,.96-1.97,.64,.3,1.46,.68,2.37,1.11-2.16,1.96-1.84,5.81-5.17,7.16h0Z"/>
      <path class="cls-1" d="M52.74,259.77c-.46,1.62,.97,3.09-.79,4.21-1.09,.7-1.96,1.04-3.28,.5-1.15-.47-2.53-.36-3.79-.61-.57-.11-1.08-.46-1.62-.71,.35-.49,.58-1.2,1.06-1.45,2.53-1.33,5.26-1.83,8.43-1.94h-.01Z"/>
      <path class="cls-1" d="M236.81,596.97c1.79-.67,3.03-1.13,4.48-1.66-.06,1.72,.49,3.18-.71,4.83-.9,1.24-.83,3.12,.47,4.19-2.23,.7-4.47,1.4-6.68,2.1-.18-1.54-.42-2.84,2.12-2.96,1.99-.1,2.92-3.83,1.65-5.63-.24-.35-.76-.5-1.32-.85v-.02Z"/>
      <path d="M373.91,556.02c-.01-.33-.06-.65-.03-.97,.1-1.01-.14-2.53,.41-2.91,1.39-.98,3.33-1.23,4.69-.08,.7,.59,.84,2.16,.77,3.26-.1,1.55-1.51,1.78-2.76,1.83-.75,.03-1.52-.2-2.28-.31-.27-.27-.53-.54-.8-.81h0Z"/>
      <path class="cls-1" d="M530.52,291.27c-.71,.1-1.9,.54-2.95,.32-.71-.14-1.65-1.14-1.76-1.86-.26-1.69-.08-3.44-.08-5.19,2.84,.32,2.95,.64,3.2,2.97,.14,1.28,1.03,2.49,1.59,3.76h0Z"/>
      <path class="cls-1" d="M503.35,385.27c-1.22,1.44-2.24,2.64-3.01,3.55-.54-.78-1.32-1.92-1.92-2.8,.82-.35,2.04-.57,2.79-1.29,.76-.73,1.06-1.95,1.75-3.32,.17,1.68,.3,2.94,.39,3.85h0Z"/>
      <path class="cls-1" d="M321.96,621.91c-.45,1.29-3.13,2.55-5.24,2.46,1.18-1.91,3-2.76,5.24-2.46Z"/>
      <path class="cls-1" d="M528.01,300.76c-1.1-1.2-2.22-2.4-3.38-3.66,.43-.31,.87-.62,1.34-.96,.42,1.76,4.06,2.11,2.04,4.62Z"/>
      <path class="cls-1" d="M240.85,239.7c1.43-1.12,2.32-1.81,3.21-2.51-.2-.19-.4-.39-.61-.58,.52,.64,1.04,1.29,1.88,2.34-1.4,.23-2.7,.45-4.49,.75h0Z"/>
      <path class="cls-1" d="M356.06,600.7c-.15-.67-.3-1.34-.47-2.08,1.05-.18,2.11-.37,3.41-.59-.94,1.21-1.67,2.15-2.41,3.09-.18-.14-.35-.27-.53-.41h0Z"/>
      <path class="cls-1" d="M505.21,375.63c.75,.34,1.31,.6,1.88,.86-.62,.87-1.26,1.74-1.89,2.62-.12,0-.23-.01-.35-.02,.12-1.13,.24-2.26,.36-3.46Z"/>
      <path d="M296.63,458.73c3.05-1.52,5.4-.8,7.78,.53,.77,.43,1.87,.34,2.82,.33,1.03,0,2.05-.22,3.08-.31,1.29-.1,2.14,.35,2.28,1.79,.1,1.02,.35,2.02,.55,3.11,1.77,.45,3.54,1.02,4.31,3.17,.17,.49,1.25,.93,1.91,.92,1.95-.05,3.31,.66,4.39,2.29,.91,1.37,2.08,2.24,4.04,2.2,1.33-.03,2.72,.96,4,1.65,.94,.51,1.58,.4,2.63,.05,2.16-.73,4.5-1.08,6.8-1.22,2.41-.15,4.5-.32,6.08-2.64,.56-.83,2.43-.93,3.73-1.05,1.82-.17,3.68,.11,5.5-.08,2.12-.22,3.34,.71,4,2.56,.71,1.97,.07,4.03-1.69,5.15-.77,.5-1.75,.68-2.64,.98-1.89,.63-3.77,1.29-5.68,1.85-1.26,.37-2.56,.67-3.86,.88-1.91,.31-3.86,.37-5.73,.81-.72,.17-1.25,1.11-1.87,1.7,.6,.48,1.16,1.29,1.8,1.37,2.45,.29,4.96,.19,7.4,.54,1.47,.21,2.84,1.05,4.27,1.54,1.25,.43,2.54,.77,3.81,1.14,1.42,.4,2.82,.91,4.26,1.15,2.54,.43,5.14,.58,7.66,1.08,2.62,.52,5.15,1.46,7.78,1.95,1.69,.32,3.39,.17,4.87,1.46,1.89,1.64,1.85,3.99-.29,5.35-2.3,1.45-4.63,1.86-7.09,.45-.27-.16-.65-.35-.91-.28-4.61,1.2-8.83-1.29-13.31-1.41-1.85-.05-3.65-1.12-5.52-1.46-3.55-.64-7.15-.97-10.7-1.63-3.38-.63-6.72-1.48-10.05-2.34-1.22-.32-2.49-.76-3.52-1.46-2.48-1.69-5.36-1.68-8.12-2.09-2.42-.36-4.62-.85-6.52-2.55-.69-.61-1.87-.88-2.85-.93-2.39-.12-4.84,.25-6.91-1.41-.22-.18-.61-.19-.93-.2-2.87-.01-5.74,0-9.09,0,.77,.59,1.16,.96,1.6,1.23,3.67,2.23,3.81,6.02,.38,8.66-.85,.65-1.46,1.62-1.84,2.06,1.27,1.14,2.83,1.96,3.44,3.24,.88,1.84-.07,3.46-2.54,5.83,2.77,1.8,5.54,3.59,8.28,5.37,1.7-.37,3.63-1.03,5.6-1.15,1.92-.11,2.76,1.24,3.3,4.37,1.04,.39,2.21,.56,3.03,1.19,2.29,1.74,1.4,5.28-.66,6.55-2,1.24-4.5,1.71-6.83,2.34-1.91,.51-3.38-.45-4.46-2.26-1.23,1.81-.21,3.04,.29,4.34,.34,.87,.62,1.78,.78,2.7,.21,1.2,.48,2.46,.32,3.64-.15,1.12-.57,2.42-1.32,3.21-1.32,1.41-3.32,1.49-4.85,.62-1.6-.91-2.83-2.45-4.26-3.75-3.15,2.02-5.22,1.7-6.89-1.06-2.3,.41-4.37,1.07-6.65-.46-.99-.67-2.78-.28-4.19-.18-4.13,.31-8.26,.71-12.38,1.09-.44,.04-.93,.1-1.28,.33-2.39,1.55-4.81,1.73-7.57,.92-2.1-.62-4.21-.02-6.42,.73-3.74,1.26-7.44,3.44-11.69,2.33-.62-.16-1.43-.17-1.82-.58-1.7-1.73-3.81-1.36-5.87-1.38-1.94-.02-3.45-1.25-3.95-3.32-.45-1.84,.54-2.79,2.03-3.73,2.1-1.33,4.55-1.3,6.39-.6,3,1.15,5.26,.13,7.71-1.05,.67-.32,1.32-.68,2.06-1.07-1.91-.8-3.98-1.38-5.73-2.47-2.48-1.55-5.01-3.21-6.99-5.32-1.47-1.57-1.43-4.07-.41-6.07,.82-1.62,2.49-2.35,4.37-2.33,2.72,.03,5.26-.22,7.91-1.4,2.94-1.31,6.3-2.29,9.7-.78,.4,.18,1.11-.48,1.69-.51,3.37-.21,6.69-.25,9.61,2.02,.57,.44,1.86,.05,2.8-.1,1.05-.17,2.05-.65,3.1-.75,2.33-.22,4.67-.33,7-.41,1.98-.06,3.97-.07,5.95,.02,.59,.03,1.22,.35,1.73,.69,1.92,1.3,4.23,1.18,6.07-.46-1.99-.96-3.1-2.34-3.1-4.74,0-2.54,2.03-3.26,3.11-4.35-1.28-1.38-2.54-2.73-3.84-4.13-1.53,1.1-3.07,1.04-4.77,0-.74-.45-1.98-.61-2.77-.32-2.15,.8-3.85,.33-5.48-1.13-.34-.3-1.17-.49-1.49-.28-2.32,1.44-4.53,1.52-6.81-.11-.38-.27-1.4-.29-1.66,0-1.27,1.41-2.9,.82-4.39,1.07-1.93,.32-3.8,1.04-5.73,1.3-2.29,.3-4.62,.33-6.93,.42-2.35,.09-4.7,.04-7.05,.21-1.11,.08-2.19,.7-3.3,.75-2.49,.12-3.9-1.01-4.68-3.45-.12-.37-.27-.72-.23-.62-2.93,.86-5.76,1.8-8.65,2.45-.74,.17-1.92-.4-2.51-1-1.54-1.59-3.11-1.26-5-.82-3.62,.84-7.33,2.2-10.97-.06-.24-.15-.68-.04-1.02,.01-.44,.07-.92,.4-1.31,.3-3.78-.93-5.95,2.05-8.62,3.64-1.83,1.09-3.43,2.34-5.72,2.4-1.09,.02-2.45,.37-3.21,1.08-2.6,2.42-5.76,3.52-9.02,4.57-1.69,.54-3.31,1.35-4.9,2.16-1.67,.85-6.95,.42-8.25-.8-1.67-1.56-.73-5.82,1.56-6.62,3.25-1.15,6.59-2.05,9.82-3.24,1.73-.64,3.36-1.59,4.97-2.52,2.15-1.25,4.11-3.33,6.38-3.74,2.38-.43,3.69-2.81,5.74-2.42-.18-1.35-.86-2.87-.39-3.77,.82-1.55,2.23-2.86,4.44-2.47,3.1,.55,5.5-.91,8.03-2.57,1.72-1.13,4.09-1.26,6.13-1.95,3.14-1.06,6.28-1.2,9.56-.68,1.05,.16,2.42-.7,3.43-1.41,2.16-1.49,3.94-3.6,6.82-3.78,.32-.02,.69-.18,.97-.07,3.37,1.31,6.13-1.01,9.2-1.47,5.16-.76,9.34-3.76,14.03-5.56,1.23-.47,2.6-.99,3.86-.89,1.2,.1,3.01,.69,3.37,1.56,.63,1.54,.59,3.53-1.26,4.67-1.53,.94-3.11,1.8-4.66,2.71-.43,.25-.84,.52-1.48,.92,2.22,1.4,4.3,.7,6.16,.14,2.67-.81,5.13-1.13,7.95-.4,2.04,.52,4.38-.26,6.58-.23,3.6,.05,7.08,.38,10.32,2.5,1.37,.89,3.6,.47,5.58,.65-4.43-3.94-4.01-8.56-.29-11.46-.85-.58-2.01-1.01-2.56-1.84-.52-.8-.42-2.02-.58-3.06-.11-.7-.4-1.44-.28-2.1,.24-1.28,.46-3.4,1.15-3.6,1.44-.41,3.18,.15,4.78,.41,.32,.05,.55,.59,.89,.73,2.37,.99,4.05,2.39,3.09,5.78h-.02Zm11.19,10.12c-4.15-.99-7.88-1.89-11.68-2.8,2.68,3.68,.81,6.02-2.38,7.78,2.63,.42,5.02,.81,7.41,1.17,.31,.05,.65-.02,.96-.08,1.18-.22,2.34-.55,3.53-.67,2.22-.24,4.46-.36,6.68-.53,.13-.16,.27-.32,.4-.48-2.29-1.06-4.98-1.75-4.94-4.39h.02Z"/>
      <path d="M224.36,426.76c-.7-.3-.93-.47-1.16-.48-2.64-.03-5.31,.22-7.89-.15-1.18-.17-2.54-1.33-3.17-2.41-.71-1.23-.78-2.92,.66-4.05,1.05-.82,2.14-1.59,3.23-2.39-1.68-1.35-1.22-3.46-.78-5.12,.25-.96,1.93-1.84,3.14-2.21,2.18-.68,4.49-1.31,6.74-1.3,3.03,.02,6.05,.72,9.08,1.01,.87,.09,1.83-.04,2.64-.34,3.78-1.41,7.55-1.8,11.57-.89,2.18,.5,4.57,.21,6.85,.1,1.65-.08,2.87,.52,3.98,1.62,2.83,2.85,6.01,3.21,10.01,2.66,2.62-.36,2.81-2.35,4.26-3.37,1.71-1.21,4.46-2.05,6.23-1.16,1.99,1,2.54,2.63,1.78,5.98,1.51-.34,2.85-.65,4.19-.93,4.08-.84,8.13-1.99,12.25-2.39,3.45-.34,6.98,.27,10.48,.33,1.13,.02,2.36-.16,3.4-.6,2.81-1.19,5.54-1.44,8.39-.19,.74,.33,1.72,.13,2.45,.47,1.24,.58,2.77,1.15,3.43,2.19,.82,1.28,.28,3-.88,4.08-1.35,1.26-2.8,2.48-4.9,2.35-3.41-.21-6.17,1.64-9.06,3.02-2.47,1.18-4.92,2.42-7.37,3.65-.45,.22-1.03,.36-1.3,.72-1.49,2.06-3.45,2.68-5.94,2.51-.95-.07-1.96,.73-2.96,1.09-2.08,.73-4.15,.2-6.26,.05-2.18-.16-4.41,.26-6.61,.51-.93,.11-1.84,.41-2.76,.64-1.23,.32-2.59,.44-3.67,1.04-3.43,1.9-6.51,1.7-8.98-1.32-1.19-1.45-2.57-2.21-4.18-2.34-3.14-.26-6.21-.22-9.3,1.08-2.46,1.03-4.95,2.37-7.95,1.99-4.01-.5-7.72,1.08-11.49,2.26-2.62,.82-5.39,1.3-8.13,1.52-1.57,.13-3.78-1.29-4.19-3.16-.43-1.94,.67-4.1,2.5-5,.49-.24,.93-.6,1.67-1.08h0Z"/>
      <path d="M269.63,443.57c2.27,.6,3.04,2.51,2.94,4.22-.09,1.6-1.3,3.14-2.02,4.74,2.31-.33,3.62,.99,4.22,3.37,.14,.57,.64,1.24,1.15,1.48,2.07,.97,2.65,2.85,1.87,4.52-.56,1.18-2.4,1.76-4.09,2.9,.2,2.08,.05,4.84-3.44,5.41-1.29,.21-2.98,.73-3.92-.88-.79-1.36,.08-4.48,1.64-6.23-1.77-.92-3.3-2.16-2.94-4.35,.29-1.78,1.04-3.49,1.58-5.24-2.85-1.03-3.21-1.56-2.8-4.49,.5-3.63,1.69-4.91,4.78-5.18-3.39-1.31-4.19-2.68-3.6-6.21,.28-1.69,2.58-2.78,5.79-2.73,1.47,.02,3.97,2.11,3.97,3.55,0,.83-.41,1.72-.83,2.47-.43,.77-.98,1.62-1.71,2.06-.72,.44-1.72,.42-2.59,.6h0Z"/>
      <path d="M190.49,544.71c-.7,.31-1.3,.56-1.9,.83,.54,4.55-2.2,7.69-6.8,7.73-.46,0-.92,.01-1.37,0-1.14-.03-2.66,.36-2.97-1.15-.29-1.44-.71-3.15,.85-4.33,1.15-.86,2.32-1.71,3.6-2.65-1.05-.1-2.14,.09-2.88-.34-1.61-.93-2.45-2.39-2.13-4.42,.28-1.8,1.43-2.58,3-2.78,1.32-.17,2.69-.15,4.01-.02,1.26,.12,2.49,.5,3.81,.78-1.04-2.55-.83-3.8,.88-5.2,1.6-1.31,3.06-.69,4.67,.02,1.87,.82,1.55,2.45,1.23,3.69-.47,1.86-2.16,2.58-4.05,2.75,.24,.52,.48,1.03,.74,1.58,2.41,.03,5.81-1.22,5.27,3.34-.1,.88-1.27,2.02-2.19,2.35-1.83,.66-2.54,.09-3.78-2.16v-.02Z"/>
      <path d="M260.85,395.67c1.38-3.2,3.78-4.59,7.17-3.96,1.46,.27,2.39,2.33,2.52,4.97,1.61,.52,3.15,1.04,4.7,1.52,1.82,.57,1.91,2.23,1.67,3.51s-1.04,3.13-2.02,3.46c-2.46,.84-5.14,1.75-7.82,.47-.63-.3-1.36-.52-1.85-.98-1.42-1.33-2.93-1.4-4.83-1.23-2.17,.19-4.45-.33-6.62-.84-1.71-.4-1.78-1.99-1.78-3.49s.15-2.85,1.8-3.51c2.32-.93,4.63-1.12,7.06,.08h0Z"/>
      <path d="M336.23,577.52c-3.01-.65-4.2-2.82-2.8-4.74,2.37-3.27,5.53-5.64,9.78-5.69,1.86-.02,3.39,.99,4.09,2.97,.29,.82,.8,1.62,1.39,2.26,1.89,2.04,1.7,4.18-.42,6.04-1.85,1.63-3.45,3.56-5.31,5.18-2.23,1.94-4.94,2.72-7.67,1.39-1.03-.5-1.93-1.99-2.19-3.18-.42-1.9,.41-3.53,3.12-4.22h.01Z"/>
      <path d="M215.53,568.36c1.65-1.28,3.48-1.01,5.63-.32,1.98,.63,4.23,.52,6.37,.54,1.86,.02,3.24,1.05,3.86,2.42,.61,1.35,.3,2.92-1.07,4.23-2.75,2.63-4.33,2.37-7.59,1.24-.47-.16-.97-.39-1.45-.37-3.41,.16-6.42-.31-7.34-4.72-1.56,1.95-3.05,3.15-5.37,2.77-1.54-.25-2.94-1.4-2.67-2.94,.69-3.88,2.95-6.35,7.21-5.63,.89,.15,1.55,1.72,2.43,2.77h0Z"/>
      <path d="M288.04,358.53c3.38,1.1,4.51,2.53,3.58,4.61-.71,1.58-3.65,2.74-5.2,2.05-2.14-.96-2.77-3.3-1.49-5.71-2.03-.04-3.65-.61-4.37-2.77-.73-2.18,.28-3.59,1.73-4.97,.81-.77,1.43-1.75,2.22-2.55,1.72-1.73,3.18-1.64,5.69,0,1.9,1.25,1.14,2.6,.35,4-.5,.89-1.1,1.73-1.54,2.66-.4,.85-.65,1.78-.96,2.67h-.01Z"/>
      <path d="M279.54,597.05c-.4,2.05-2.02,4.37-3.87,4.87s-3.4-.35-4.65-1.67c-1.23-1.3-2.52-2.13-4.45-2.27-.96-.07-2.33-1.27-2.62-2.23-.37-1.22-.69-2.88,1.45-3.64,2.69-.95,5.21-1.14,7.81,.06,1.54,.71,3.22,1.21,4.6,2.15,.82,.56,1.18,1.79,1.74,2.72h-.01Z"/>
      <path d="M295.3,442.9c1.1,.85,1.35,2.47,.57,4.02-.93,1.85-2.78,2.51-4.76,2.31-1.72-.17-3.34-.7-3.76-2.76-.36-1.8-.74-3.59-1.13-5.38-.45-2.06,.64-3.29,2.25-4.26,1.93-1.16,4.05-1.4,6.19-1.04,.54,.09,1.32,1.04,1.31,1.59-.02,1.68-.38,3.35-.67,5.53h0Z"/>
      <path d="M288.16,338.64c2.42,2.74,2.6,3.94,.92,5.73-1.29,1.38-5.38,1.84-6.69,.76-2.32-1.91-2.28-2.87,.24-6.39-2.4-2.75-2.7-4.48-.19-6.16,1.32-.88,3.77-.7,5.47-.2,1.53,.46,1.52,4.26,.26,6.25h-.01Z"/>
      <path d="M367.89,544.22c2.4,1.24,3.1,2.52,2.63,4.23-.52,1.91-2.51,3.24-4.74,3.18-1.63-.05-3.57-1.44-3.59-2.92-.01-1.08,.29-2.42,.96-3.19,.67-.77,1.98-.98,2.79-1.34-.77-.62-1.75-1.25-2.54-2.06-.95-.98-.68-2.77,.4-3.61,2.44-1.88,5.65-1.92,7.78,.22,.62,.63,.96,2.22,.6,2.98-.48,1.03-1.73,1.73-2.72,2.48-.25,.19-.76,.03-1.58,.03h0Z"/>
      <path d="M287.22,389.02c-2.4-.33-3.64-1.28-3.75-2.87-.15-2.29,.66-3.94,2.11-4.31,1.46-.37,5.15,.85,5.51,2.06,.28,.92,.28,2.15-.12,2.98-.36,.74-1.44,1.14-2.32,1.77,1.19,.24,2.44,.15,3.17,.72,.75,.6,1.25,1.8,1.42,2.81,.4,2.41-.55,3.89-2.85,4.8-1.75,.69-2.99-.21-4.05-1.49-1.06-1.29-.65-4.28,.87-6.47h0Z"/>
      <path d="M173.09,513.82c2.19-1.25,4.65-.68,5.97,1.35,.83,1.27,.18,3.85-1.36,4.75-1.09,.63-2.29,1.24-3.51,1.42-1.4,.21-2.92,.45-4.13-1-.59-.7-1.9-.76-2.67-1.37-.77-.62-1.66-1.51-1.8-2.39-.19-1.22-.74-2.96,.94-3.65,2.3-.95,4.62-1.06,6.56,.9h0Z"/>
      <path d="M73.96,270.31c-2-.19-4-.35-5.99-.59-1.34-.16-1.68-1.08-1.54-2.27,.27-2.25,1.49-3.68,3.98-3.98,2.62-.32,5.3-.47,7.93-.36,2.49,.1,3.48,1.4,3.29,3.62-.17,2.05-1.61,3.37-3.73,3.41-1.31,.02-2.62,0-3.93,0l-.02,.17h.01Z"/>
      <path d="M188.27,268.56c-2.99,.41-5.31-2.03-4.6-4.44,.34-1.19,1.29-2.61,2.35-3.09,2.36-1.07,4.87-2.09,7.62-1.04,1.23,.47,2.41,1.02,2.27,2.46-.12,1.26-.33,3.01-1.17,3.61-1.85,1.32-4.13,2.06-6.23,3.04-.08-.18-.16-.35-.24-.53h0Z"/>
      <path d="M198.49,564.68h3.91c1.39,0,2.29,.72,2.36,2.05,.07,1.33,.52,2.79-1.49,3.51-2.95,1.06-5.87,1.77-9.03,1.54-2-.14-3.73-1.53-3.76-3.29-.03-1.78,1.83-3.73,3.69-3.8,1.43-.05,2.87-.01,4.31-.01h.01Z"/>
      <path d="M210.75,556.02c-3.33,.29-5.01-1.7-4.18-5.26,.42-1.83,.77-3.2,2.5-4.17,1.94-1.09,3.87-.97,5.79-.31,.68,.23,1.44,1.04,1.63,1.73,1.22,4.41-1.95,8.42-5.74,8.01h0Z"/>
      <path d="M152.17,485.61c-2.27,1.14-4.54,2.21-7.09,.79-2.6-1.44-2.77-4.22-.47-6.07,2.13-1.71,4.44-3.03,7.2-2.48,1.1,.22,2.34,1.24,2.87,2.23,.37,.69-.29,2-.64,2.98-.23,.64-.74,1.19-1.13,1.77-.25,.26-.5,.51-.74,.77h0Z"/>
      <path d="M277.41,497.54c-.4-2.15,.84-3.72,2.43-4.24,1.18-.38,2.88,.45,4.19,1.06,1.01,.47,2.1,1.29,2.6,2.24,.64,1.23,1.31,2.96,.89,4.08-.48,1.31-1.69,2.54-3.66,2.72-2.79,.26-4.42-1.27-5.86-3.11-.52-.66-.41-1.82-.59-2.75h0Z"/>
      <path d="M206.63,515.52c-2.93,0-4.67-1.31-4.95-3.15-.32-2.17,1.02-4.31,3.21-4.69,1.84-.32,3.75-.42,5.62-.38,1.91,.04,2.32,1.7,2.19,3.07-.13,1.33-.61,3.12-1.57,3.75-1.46,.96-3.46,1.11-4.5,1.4h0Z"/>
      <path d="M159.66,523.43c-2.18,.53-4.33-.6-4.74-2.48-.3-1.41,.82-2.63,2.67-2.92,2.3-.36,3.81,1.13,4.09,4.04,2.8-.17,4.41,.5,4.95,2.31,.51,1.7-.16,3.15-1.51,4.24-1.62,1.29-3.78,1.41-5.19,.35-.95-.71-1.08-3.31-.27-5.54h0Z"/>
      <path d="M320.01,573.31c-1.64-.41-3.56-.41-4.85-1.31-2.07-1.46-1.31-3.92,.94-5.04,2.67-1.32,5.38-.52,8.06-.62,1.3-.05,3.02,2.53,2.95,3.88-.07,1.4-1.45,2.53-3.28,2.71-.13,.01-.26,0-.39,0h-3.34c-.03,.12-.06,.25-.09,.37h0Z"/>
      <path d="M295.65,594.24c-1.37-.54-2.84-.9-4.08-1.65-1.94-1.16-1.88-4.24,.22-5.19s4.47-1.41,6.76-1.81c.69-.12,1.77,.48,2.26,1.08,1.21,1.48,1.11,3.29,.35,4.93-.7,1.52-2.03,2.27-3.77,2.17-.52-.03-1.04,0-1.57,0-.06,.15-.12,.31-.18,.46h0Z"/>
      <path d="M257.32,546.05c.45-4.45,1.52-5.52,4.92-4.96,1.55,.26,2.4,2.3,1.95,4.68-.41,2.14-2.16,2.65-6.24,1.73,.32,2.22-.87,3.5-2.88,3.47-1.25-.02-2.88-.62-3.61-1.54-.64-.81-.7-2.49,.66-3.47,1.43-1.03,3.3-1.67,5.2,.08h0Z"/>
      <path d="M474.28,405.02c3.4,0,4.85,1.19,4.93,4.05,.07,2.49-2.3,4.59-5.17,4.59-3.28,0-4.98-1.51-5.34-4.72-.2-1.79,1.75-3.7,4.01-3.92,.52-.05,1.04,0,1.56,0h.01Z"/>
      <path d="M261,592.21c.47,2.17-.58,3.6-2.14,4.54-2.07,1.26-4.3,2.06-6.56,.23-1.77-1.43-1.4-5.67,.89-6.76,1.61-.77,3.6-1.06,5.41-1.04,1.71,.02,2.96,1.08,2.39,3.03h0Z"/>
      <path d="M153.82,535.58c-2.9-.02-4.41-1.51-4.45-3.97-.01-.65-.02-1.3,0-1.96,.04-1.19-.35-2.57,1.29-3.09,2.05-.65,4.26-.04,5.29,1.35,.67,.9,1.63,1.62,2.19,2.57,.5,.86,.94,1.97,.84,2.91-.12,1.11-.96,1.87-2.36,1.82-1.07-.04-2.16,.27-2.81,.36h0Z"/>
      <path d="M331.84,579.88c0,2.75-.88,3.61-4.68,4.6-2.55,.67-4.54,0-5.42-1.84-.57-1.18,.18-3.57,1.9-4.74,1.28-.87,2.86-1.59,4.37-1.75,2.95-.3,3.84,.75,3.84,3.72h0Z"/>
      <path d="M282.78,581.3c1.2,.36,2.38,.8,3.6,1.06,2.21,.48,2.73,2.56,2.57,4.39-.18,2.1-1.52,2.88-3.49,3.13-3.22,.41-6.72-2.26-6.71-5.25,.01-2.61,.58-3.05,4.04-3.33h-.01Z"/>
      <path d="M397.9,509.42c0,2.29-.68,3.42-2.86,3.64-1.81,.18-3.72-.04-5.5-.45-1.63-.37-2.72-2.81-2.2-4.68,.45-1.6,1.62-2.39,3.38-2.26,1.24,.09,2.49-.04,3.72,.03,2.47,.13,3.46,1.23,3.46,3.72Z"/>
      <path d="M283.68,375.86c0-1.14-.38-2.48,.09-3.37,.62-1.16,1.63-2.2,3.41-2.12,3.33,.14,4.57,2.2,2.94,5.22-.31,.58-.72,1.31-.61,1.87,.31,1.53,.28,2.85-1.31,3.57-1.78,.81-3.81,.39-4.74-1.02-.99-1.5-.48-2.82,.84-3.93-.2-.07-.41-.14-.61-.22h-.01Z"/>
      <path d="M326.19,560.06c-2.78-.23-3.4-.84-3.41-3.02,0-1.58,.69-2.22,2.25-2.22,2.58,0,2.68,.07,2.99,3.73,1.49-.18,3.08-.72,3.92,1.27,.7,1.66,.61,4.12-.41,4.89-1.07,.81-2.21,1.72-3.68,.81-1.97-1.22-2.41-2.68-1.66-5.48v.02Z"/>
      <path d="M348.77,521.81c-4.01,.17-4.77-1.34-4.69-4.23,.02-.68,.44-1.49,.93-2,2.21-2.27,6.78-1.92,8.12,.55,1.45,2.67-.32,5.65-3.38,5.68h-.98Z"/>
      <path d="M280.09,571.61c.56,2.77-.36,4.22-2.9,4.57-1.89,.26-3.74-1.07-3.95-2.84-.25-2.14,.83-3,3.94-3.25,.39-1.35,.61-2.74,1.23-3.92,.25-.47,1.38-.69,2.09-.66,1.27,.06,2.41,.53,2.56,2.09,.21,2.14-.62,3.27-2.98,4.01h.01Z"/>
      <path d="M347.63,551.34c.72,.04,1.48-.06,2.14,.16,1.23,.41,2.72,.54,2.92,2.36,.21,1.94-1.06,2.99-2.42,3.63-2.24,1.05-4.66,1.06-6.99,.06-1.94-.84-2.24-3.59-.35-4.78,1.35-.86,3.01-1.23,4.54-1.81,.06,.13,.11,.26,.17,.38h-.01Z"/>
      <path d="M285.2,543.05c.65,0,1.31,.05,1.96,0,1.32-.11,2.79,0,3.14,1.34,.31,1.22-.11,2.64-.31,3.95-.05,.32-.51,.83-.77,.82-2.82-.1-5.78,1-8.41-.8-1.59-1.09-.93-2.78-.69-4.14,.09-.51,1.48-.94,2.34-1.12,.87-.19,1.82-.04,2.74-.04h0Z"/>
      <path d="M219.57,524.07c-3.12-.28-4.77-1.74-4.52-4.32,.19-1.99,1.91-2.71,3.38-2.94,1.71-.28,3.59,0,5.29,.45,.6,.16,1.31,1.59,1.2,2.33-.17,1.16-.73,2.56-1.6,3.25-.97,.77-2.48,.85-3.76,1.23h0Z"/>
      <path d="M402.91,521.42c3.44,0,4.9,2.27,3.57,5.54-.05,.12-.11,.23-.18,.34-.68,1.06-5.08,1.77-6.88,1.12-1.37-.49-2.55-2.55-1.78-4.22,.54-1.18,2.11-1.96,3.34-2.73,.47-.29,1.28-.05,1.93-.05h0Z"/>
      <path d="M254.77,563.87c-.93-.14-1.91-.19-2.84-.45-1.8-.51-2.39-2.02-1.78-3.5,.4-.98,1.65-1.97,2.69-2.23,1.54-.38,3.24-.09,4.87-.1,1.71,0,2.6,.99,2.92,2.52,.36,1.74-.28,2.94-2.15,3.25-1.21,.2-2.44,.33-3.72,.5h0Z"/>
      <path d="M387.98,491.56c2.11,.28,3.83,1.37,4.02,2.8,.3,2.22-1,4.17-3.08,4.63-.56,.12-1.18,.47-1.67,.34-1.29-.35-3-.54-3.69-1.45-1.19-1.55-.42-3.87,1.2-4.82,1.02-.6,2.15-1,3.22-1.5Z"/>
      <path d="M292.41,405.23c.03,2.17-1.91,4.12-4.08,4.09-2.31-.03-3.98-1.74-4.07-4.18-.09-2.53,.76-3.63,2.84-3.66,4.13-.07,5.28,.74,5.32,3.75h-.01Z"/>
      <path d="M313.75,504.74c0,2.7-1.38,3.71-5.07,3.7-2.01,0-3.56-1.51-3.58-3.48-.02-2.14,1.86-3.86,4.2-3.83,3.38,.04,4.46,.91,4.46,3.61h-.01Z"/>
      <path d="M501.51,278.78c-1.2-.17-3.05,.63-3.32-1.73-.32-2.72,.72-4.38,3.09-4.97,3.07-.76,4.33-.31,5.14,1.81,1.09,2.84-.14,4.74-3.18,4.88-.52,.02-1.04,0-1.73,0h0Z"/>
      <path d="M285.21,305.13c-2.94,.37-5.12-1.41-4.43-3.99,.23-.86,1.01-1.74,1.77-2.26,1.86-1.26,6.06-.28,6.77,1.49,1.12,2.82-.68,5.06-3.13,4.76-.32-.04-.65,0-.98,0h0Z"/>
      <path d="M379.42,572.09c0,2.53-1.72,4.21-4.41,4.3-2.29,.07-3.38-1.08-3.35-3.51,.04-2.79,1.44-4.24,4.14-4.27,2.41-.03,3.62,1.14,3.62,3.48h0Z"/>
      <path d="M335.03,554.03c-.65,0-1.34,.15-1.93-.03-1.21-.36-2.53-.61-2.48-2.45,.05-1.78-.03-3.51,2.27-3.85,1.27-.19,2.58-.39,3.84-.26,1.55,.16,2.27,1.83,2.2,4.21-.05,1.7-1.18,2.16-2.53,2.39-.44,.08-.91,.01-1.37,.01v-.02Z"/>
      <path d="M322.98,502.94c-2.48,0-3.85-1.27-3.8-3.52,.05-2.46,1.48-3.6,4.46-3.55,2.69,.04,3.49,.77,3.49,3.19,0,2.58-1.39,3.88-4.14,3.88h0Z"/>
      <path d="M212.66,564.77c-1.13-.71-2.44-1.24-3.31-2.19-.56-.61-.89-2.05-.55-2.72,.49-.95,1.59-1.92,2.61-2.18,1.86-.47,3.88-.17,5.03,1.62,1.6,2.5-.19,4.98-3.46,4.97-.11,.16-.21,.33-.32,.49h0Z"/>
      <path d="M240.03,547.77c-2.78,0-4.15-1.04-4.15-3.14s1.58-3.54,4.11-3.54c2.78,0,4.15,1.04,4.15,3.14s-1.58,3.54-4.11,3.54Z"/>
      <path d="M393.95,483.67c3.48,0,3.56,.07,3.56,3.01s-.94,3.67-3.93,3.67c-2.46,0-3.97-1.33-3.88-3.43,.11-2.26,1.4-3.26,4.25-3.26h0Z"/>
      <path d="M361.33,549.49c0,2.01-1.53,3.57-3.59,3.29-2.45-.34-4.85-1.48-4.69-3.7,.14-1.87,1.81-3.13,4.39-3.1,2.51,.02,3.89,1.26,3.89,3.51h0Z"/>
      <path d="M203.88,542.62c-1.95,.53-3.18-.36-3.96-2s-.03-3.29,1-4.24c.81-.74,2.6-.95,3.75-.64,.98,.27,1.91,1.5,2.41,2.52,.39,.79,.21,1.94,.05,2.9-.33,2.03-2.03,1.35-3.25,1.46h0Z"/>
      <path d="M359.01,564.68c-1.9-.02-3.24-1.22-3.18-2.87,.07-1.96,2.67-4.24,4.81-4.21,1.7,.02,3.05,1.35,3,3.12-.07,2.39-2.48,4.4-4.62,3.95h-.01Z"/>
      <path d="M277.95,557.61c-.53,.2-1.17,.27-1.56,.62-1.53,1.35-2.91,.27-4.04-.44-.75-.47-1.35-1.75-1.36-2.67,0-.8,.78-2.13,1.45-2.3,1.57-.4,3.49-.75,4.88-.18,1.9,.77,1.74,2.78,1.05,4.56-.14,.14-.28,.28-.42,.42h0Z"/>
      <path d="M220.69,535.18c3.17,0,4.84,1.49,4.08,3.84-.26,.81-1.19,1.71-2.01,1.98-1.86,.62-3.88,.81-5.35-.96-.92-1.11-.89-2.52,.03-3.52,.76-.82,1.96-1.23,2.96-1.83,.09,.16,.19,.32,.28,.48h.01Z"/>
      <path d="M414.14,483.67c2.36,0,3.74,1.18,3.7,3.14-.03,1.51-2.05,3.52-3.55,3.54-2.35,.03-4.19-1.52-4.2-3.54-.01-2.26,1.13-3.14,4.04-3.14h.01Z"/>
      <path d="M293.67,582.77c-2.69,0-3.75-1.07-3.97-3.34-.19-1.97,1.22-3.21,3.6-3.32,1.78-.08,3.94,2.09,3.92,3.8-.03,1.83-1.31,2.87-3.56,2.87h0Z"/>
      <path d="M325.05,445.92c2.22,0,3.5,1.17,3.51,3.2,0,2.21-1.37,3.24-4.32,3.19-2.05-.03-3.04-1.07-3.02-3.17,.02-2.31,1.11-3.23,3.83-3.22h0Z"/>
      <path d="M287.65,257.55c-2.62,0-3.32-.7-3.42-3.09-.09-2.27,1.2-2.91,3.6-3.07,2.69-.18,3.92,.93,3.89,3.13-.02,1.99-1.41,3.02-4.07,3.02h0Z"/>
      <path d="M264.04,578.83c2.41,0,3.71,1.14,3.69,3.21-.02,1.87-1.6,3.49-3.39,3.47-2.34-.03-3.71-1.29-3.69-3.43,.02-2.17,1.15-3.26,3.39-3.25Z"/>
      <path d="M103.36,435.69c0-2.6,.98-3.54,3.69-3.54s3.01,.24,3,2.61c0,2.15-1.92,4.1-4,4.08-2.01-.02-2.69-.81-2.69-3.14h0Z"/>
      <path d="M380.91,525.35c-2.69,0-3.85-.95-3.85-3.17,0-1.86,1.57-3.51,3.34-3.52,2.12,0,3.34,1.28,3.34,3.54,0,2.97-.14,3.14-2.84,3.14h.01Z"/>
      <path d="M432.69,493.5c-2.18,0-3.59-1.13-3.58-2.86,0-1.87,1.58-3.32,3.75-3.25,1.84,.06,3.83,.79,3.61,3.05-.2,2.09-1.22,3.05-3.79,3.05h.01Z"/>
      <path d="M339.31,534.59c0-2.24,1.09-3.34,3.32-3.34s3.76,1.16,3.75,2.98c0,1.8-1.73,3.26-3.87,3.27-2.31,0-3.21-.8-3.21-2.9h0Z"/>
      <path d="M319.53,591.02c-2.25,.01-3.01-.8-3.03-3.24-.02-2.15,1.34-3.3,3.67-3.48,1.83-.14,2.66,1.43,2.87,3.44,.18,1.77-1.57,3.27-3.51,3.28h0Z"/>
      <path d="M211.74,538.33c1.95,.02,3.29,1.14,3.3,2.75,.01,1.8-1.77,3.46-3.73,3.49-1.88,.03-3.37-1.39-3.34-3.19,.03-2.13,1.2-3.08,3.78-3.05h0Z"/>
      <path d="M319.26,554.45c2.34,0,3.12,.68,3.13,2.71,.01,2.33-1.15,3.58-3.34,3.58-2.06,0-3.33-1.11-3.34-2.93-.01-2.14,1.28-3.37,3.55-3.36h0Z"/>
      <path d="M374.44,518.27c-2.61,0-3.28-.6-3.28-2.96,0-1.99,1.32-3.19,3.52-3.18,1.96,0,3.19,1.28,3.17,3.32-.02,2.24-.73,2.83-3.41,2.82Z"/>
      <path d="M230.59,558.38c2.29,0,3.28,.77,3.26,2.56-.02,1.84-2.05,3.73-4.03,3.73-1.69,0-2.73-1.19-2.7-3.27,.03-2.05,.94-3.35,3.47-3.02h0Z"/>
      <path d="M389.47,536.36c2.84,.4,3.75,.96,3.66,2.89-.05,.98-.48,2.64-1.01,2.76-1.53,.34-3.25,.84-4.74-.59-1.15-1.11-1.21-2.49-.67-3.54,.41-.78,1.8-1.03,2.76-1.52Z"/>
      <path d="M208.49,523.76c-.13,1.7-2.16,3.33-3.96,3.19-1.46-.12-2.75-1.56-2.67-2.99,.11-1.98,1.58-3.19,3.68-3.03,1.88,.14,3.07,1.29,2.95,2.84h0Z"/>
      <path d="M194.14,524.17c2.34,0,3.06,.69,3.07,2.92,0,1.94-.84,2.59-3.39,2.59s-2.78-.24-2.77-2.81c0-2.51,.23-2.7,3.09-2.7Z"/>
      <path d="M140.4,500.58c2.37,0,3.07,.68,3.07,2.96,0,2.15-.66,2.73-3.21,2.8-1.83,.05-3-1.06-2.97-2.84,.04-2.23,.78-2.92,3.11-2.92Z"/>
      <path d="M519.02,260.31c0,2.51-.27,2.76-2.87,2.74-2.34,0-3.04-.71-3.03-3,0-2.09,.58-2.61,2.89-2.63,2.47-.02,3.01,.49,3.01,2.88h0Z"/>
      <path d="M267.39,574.11c-2.25,0-3.23-.74-3-2.77,.22-1.94,.25-2.84,2.82-2.76,2.51,.08,3.28,.66,3.28,2.78s-.78,2.74-3.1,2.74h0Z"/>
      <path d="M301.01,494.84c.01-2.29,.59-2.94,2.6-2.92,1.82,.02,3.07,1.23,3.06,2.98-.01,1.74-1.27,2.92-3.12,2.92-1.96,0-2.55-.69-2.54-2.98Z"/>
      <path d="M152.17,485.61c.25-.26,.5-.51,.74-.77h1.77c2.68,0,3.08,.41,2.94,3.07-.09,1.83-1.34,2.86-3.39,2.34-.83-.21-1.63-1.26-2.04-2.13-.33-.69-.04-1.67-.02-2.52h0Z"/>
      <path d="M269.31,552.07c0,2.45-.31,2.78-2.62,2.77-2.08,0-2.88-.76-2.88-2.73s.79-2.76,2.84-2.77c2.33-.02,2.66,.32,2.66,2.73Z"/>
      <path d="M211.39,588.16c.34,.88,1.09,1.84,.93,2.61-.22,1.06-.92,2.26-1.79,2.89-.89,.65-3.51-.64-4-1.63-.73-1.48,.65-3.51,2.59-3.74,.77-.09,1.56-.04,2.34-.06l-.07-.07h0Z"/>
      <path d="M270.88,565c.01-1.67,1.04-2.69,2.63-2.63s3.05,1.5,3.01,2.96c-.04,1.43-1.37,2.74-2.81,2.59-1.54-.15-3.17-.97-2.83-2.93h0Z"/>
      <path d="M270.88,538.32c-.01-2.38,.34-2.69,2.57-2.76,1.65-.05,2.61,.44,2.56,2.29-.05,2.01-.81,2.79-2.8,2.85-1.81,.06-2.49-.79-2.33-2.39h0Z"/>
      <path d="M389.8,519.23c1.34-.01,2.81,1.5,2.85,2.94,.04,1.39-1.11,2.65-2.5,2.73-1.49,.08-2.74-1.24-2.74-2.9,0-1.56,1.02-2.75,2.39-2.77h0Z"/>
      <path d="M277.95,557.61c.14-.14,.28-.28,.42-.42,3.04-.24,3.8,.15,4.13,2.13,.26,1.56-.58,2.84-1.97,2.98-2.23,.24-2.98-.34-2.95-2.44,.01-.75,.24-1.5,.37-2.26h0Z"/>
      <path d="M372.36,472.66c-1.59,.17-2.46-.51-2.4-2.33,.06-1.85,.72-2.59,2.62-2.52,1.5,.06,2.63,.52,2.53,2.43-.11,2.05-.42,2.43-2.76,2.42h.01Z"/>
      <path d="M378.19,550.91c-2.3,0-2.66-.4-2.72-2.44-.05-1.86,.91-2.35,2.56-2.29,2.16,.07,2.54,.42,2.59,2.46,.05,1.85-.89,2.43-2.43,2.28h0Z"/>
      <path d="M150.57,515.91c-.09,1.48-.86,2.33-2.55,2.38-1.91,.05-2.21-1.04-2.22-2.62,0-1.67,.5-2.62,2.33-2.51,1.68,.1,2.4,1.02,2.44,2.76h0Z"/>
      <path d="M359.58,441.59c1.77-.33,2.21,1.05,2.42,2.44,.19,1.27-1.13,2.55-2.48,2.44-1.45-.11-2.66-.51-2.54-2.45,.12-2,.43-2.43,2.61-2.43h0Z"/>
      <path d="M254.26,537.96c2.09-.17,2.47,.91,2.49,2.55,.03,1.97-1.22,2.23-2.67,2.26-1.67,.03-2.35-1.19-2.28-2.54,.07-1.43,.74-2.73,2.46-2.27h0Z"/>
      <path d="M504.72,265.81c1.57,.03,2.61,1.11,2.39,2.67-.2,1.39-.66,2.59-2.57,2.48-1.99-.12-2.03-1.34-2.05-2.81-.03-1.64,.62-2.46,2.24-2.33h-.01Z"/>
      <path d="M157.62,513.98c.17,1.91-.85,2.36-2.5,2.36s-2.2-.81-2.24-2.4c-.05-1.82,.84-2.43,2.45-2.43,1.7,0,2.52,.79,2.29,2.48h0Z"/>
      <path class="cls-1" d="M307.82,468.85c-.04,2.64,2.65,3.33,4.94,4.39-.13,.16-.27,.32-.4,.48-2.23,.17-4.46,.29-6.68,.53-1.19,.13-2.35,.45-3.53,.67-.32,.06-.65,.13-.96,.08-2.39-.36-4.78-.75-7.41-1.17,3.19-1.75,5.06-4.1,2.38-7.78,3.8,.91,7.53,1.81,11.68,2.8h-.02Z"/>
    </g>
  </g>
</svg>